# Blender v2.81 (sub 16) OBJ File: ''
# www.blender.org
mtllib slope main.mtl
o Cube_Cube.001
v 0.000000 -0.000000 0.500000
v 0.000000 0.000000 -0.500000
v 1.000000 0.000000 -0.500000
v 1.000000 -0.000000 0.500000
v 1.000000 1.000000 -0.500000
v 1.000000 1.000000 0.500000
vt 0.000000 0.000000
vt 0.000000 1.000000
vt 1.000000 1.000000
vt 1.000000 0.000000
vt 1.000000 1.000000
vt 1.000000 0.000000
vn 0.0000 -1.0000 -0.0000
vn 1.0000 0.0000 0.0000
vn -0.7071 0.7071 0.0000
vn 0.0000 -0.0000 1.0000
vn 0.0000 0.0000 -1.0000
usemtl None
s 1
f 1/1/1 2/2/1 3/3/1 4/4/1
f 3/3/2 5/5/2 6/6/2 4/4/2
f 2/2/3 1/1/3 6/6/3 5/5/3
f 4/4/4 6/6/4 1/1/4
f 3/3/5 2/2/5 5/5/5
