# Blender v2.81 (sub 16) OBJ File: ''
# www.blender.org
mtllib slope back.mtl
o Cube_Cube.001
v -0.500000 -0.000000 0.500000
v -0.500000 0.000000 -0.500000
v 0.500000 0.000000 -0.500000
v 0.500000 -0.000000 0.500000
v 0.500000 1.000000 -0.500000
v 0.500000 1.000000 0.500000
v -0.500000 1.000000 0.500000
v -0.500000 1.000000 -0.500000
vt 1.000000 1.000000
vt 1.000000 1.000000
vt 1.000000 0.000000
vt 1.000000 0.000000
vt 0.000000 0.000000
vt 0.000000 0.000000
vt 0.000000 1.000000
vt 0.000000 1.000000
vt 0.000100 0.999900
vt 0.000100 0.000100
vt 0.999900 0.000100
vt 0.999900 0.999900
vt 0.999900 0.000100
vt 0.999900 0.999900
vt 0.000100 0.999900
vt 0.000100 0.000100
vn 1.0000 0.0000 0.0000
vn 0.0000 -0.0000 1.0000
vn 0.0000 0.0000 -1.0000
vn 0.0000 1.0000 0.0000
vn 0.0000 -1.0000 -0.0000
usemtl None
s 1
f 3/1/1 5/2/1 6/3/1 4/4/1
f 1/5/2 4/4/2 6/3/2 7/6/2
f 2/7/3 8/8/3 5/2/3 3/1/3
usemtl Material.001
f 6/9/4 5/10/4 8/11/4 7/12/4
usemtl Material.002
f 1/13/5 2/14/5 3/15/5 4/16/5
