# Blender v2.83.5 OBJ File: ''
# www.blender.org
o whail
v -0.958454 4.607949 0.831938
v -0.868997 -5.278483 0.868997
v -0.958454 -4.607949 0.831938
v -1.047911 5.278483 1.047911
v -0.958454 4.607949 -0.831938
v -0.868997 5.278483 0.868997
v -1.047911 5.278483 -1.047911
v -0.958454 -4.607949 -0.831938
v -0.868997 5.278483 -0.868997
v -1.047911 -5.278483 -1.047911
v -0.868997 -5.278483 -0.868997
v -1.047911 -5.278483 1.047911
v -0.831938 4.607949 -0.958454
v -0.831938 -4.607949 -0.958454
v 0.831938 4.607949 -0.958454
v 1.047911 5.278483 -1.047911
v 0.831938 -4.607949 -0.958454
v 0.868997 5.278483 -0.868997
v 1.047911 -5.278483 -1.047911
v 0.868997 -5.278483 -0.868997
v 0.958454 4.607949 -0.831938
v 0.958454 -4.607949 -0.831938
v 0.958454 4.607949 0.831938
v 1.047911 5.278483 1.047911
v 0.958454 -4.607949 0.831938
v 0.868997 5.278483 0.868997
v 1.047911 -5.278483 1.047911
v 0.868997 -5.278483 0.868997
v 0.831938 4.607949 0.958454
v 0.831938 -4.607949 0.958454
v -0.831938 4.607949 0.958454
v -0.831938 -4.607949 0.958454
v -1.366551 5.300000 1.366551
v -1.264596 4.484616 -1.264596
v -1.278535 4.484616 1.278535
v -1.195410 5.300000 -1.195410
v 1.083497 4.484616 -1.083497
v 1.356269 5.300000 -1.356269
v 1.237210 4.484616 1.237210
v 1.124063 5.300000 1.124063
v 1.084960 -4.484616 1.084960
v -1.222703 -5.300000 1.222703
v 1.241378 -5.300000 1.241378
v 1.269890 -3.669231 1.269890
v -1.241205 -4.484616 1.241205
v 1.082397 -2.853846 1.082397
v -1.204476 -3.669231 1.204476
v 1.167233 -2.038461 1.167233
v -1.175214 -2.853846 1.175214
v 1.165204 -1.223077 1.165204
v -1.374716 -2.038462 1.374716
v 1.280936 -0.407692 1.280936
v -1.243248 -1.223077 1.243248
v 1.323037 0.407692 1.323037
v -1.046298 -0.381945 1.118316
v 1.290223 1.223077 1.290223
v -1.286146 0.407692 1.286146
v 1.247448 2.038462 1.247448
v -1.232771 1.223077 1.232771
v 1.154619 2.853846 1.154619
v -1.387712 2.038461 1.387712
v 1.318210 3.669231 1.318210
v -1.273470 2.853846 1.273470
v -0.957821 3.669231 0.957821
v 1.190389 -4.484616 -1.190389
v 1.471190 -5.300000 -1.471190
v 1.036250 -3.669231 -1.036250
v 1.380198 -2.853846 -1.380198
v 1.264800 -2.038461 -1.264800
v 1.238582 -1.223077 -1.238582
v 1.111500 -0.407692 -1.111500
v 1.186742 0.407692 -1.186742
v 1.141250 1.223077 -1.141250
v 1.164454 2.038462 -1.164454
v 1.073395 2.853846 -1.073395
v 1.114156 3.669231 -1.114156
v -1.219200 -4.484616 -1.219200
v -1.063197 -5.300000 -1.063197
v -1.142949 -3.669231 -1.142949
v -1.182632 -2.853846 -1.182632
v -1.268109 -2.038461 -1.268109
v -1.283093 -1.223077 -1.283093
v -1.365988 -0.407692 -1.365988
v -1.300227 0.407692 -1.300227
v -1.096474 1.223077 -1.096474
v -1.231909 2.038462 -1.231909
v -1.047663 2.853846 -1.047663
v -1.306374 3.669231 -1.306374
vt 0.625000 0.000000
vt 0.375000 0.000000
vt 0.375000 0.000000
vt 0.625000 0.000000
vt 0.625000 0.250000
vt 0.625000 0.000000
vt 0.625000 0.250000
vt 0.375000 0.250000
vt 0.625000 0.250000
vt 0.375000 0.250000
vt 0.375000 0.250000
vt 0.375000 0.000000
vt 0.625000 0.250000
vt 0.375000 0.250000
vt 0.625000 0.500000
vt 0.625000 0.500000
vt 0.375000 0.500000
vt 0.625000 0.500000
vt 0.375000 0.500000
vt 0.375000 0.500000
vt 0.625000 0.500000
vt 0.375000 0.500000
vt 0.625000 0.750000
vt 0.625000 0.750000
vt 0.375000 0.750000
vt 0.625000 0.750000
vt 0.375000 0.750000
vt 0.375000 0.750000
vt 0.625000 0.750000
vt 0.375000 0.750000
vt 0.625000 1.000000
vt 0.625000 1.000000
vt 0.375000 1.000000
vt 0.625000 1.000000
vt 0.375000 1.000000
vt 0.375000 1.000000
vt 0.625000 0.000000
vt 0.605769 0.000000
vt 0.605769 0.250000
vt 0.625000 0.250000
vt 0.605769 0.500000
vt 0.625000 0.500000
vt 0.605769 0.750000
vt 0.625000 0.750000
vt 0.605769 1.000000
vt 0.394231 0.750000
vt 0.375000 0.750000
vt 0.375000 1.000000
vt 0.413462 0.750000
vt 0.394231 1.000000
vt 0.432692 0.750000
vt 0.413462 1.000000
vt 0.451923 0.750000
vt 0.432692 1.000000
vt 0.471154 0.750000
vt 0.451923 1.000000
vt 0.490385 0.750000
vt 0.471154 1.000000
vt 0.509615 0.750000
vt 0.490385 1.000000
vt 0.528846 0.750000
vt 0.509615 1.000000
vt 0.548077 0.750000
vt 0.528846 1.000000
vt 0.567308 0.750000
vt 0.548077 1.000000
vt 0.586538 0.750000
vt 0.567308 1.000000
vt 0.586538 1.000000
vt 0.394231 0.500000
vt 0.375000 0.500000
vt 0.413462 0.500000
vt 0.432692 0.500000
vt 0.451923 0.500000
vt 0.471154 0.500000
vt 0.490385 0.500000
vt 0.509615 0.500000
vt 0.528846 0.500000
vt 0.548077 0.500000
vt 0.567308 0.500000
vt 0.586538 0.500000
vt 0.394231 0.250000
vt 0.375000 0.250000
vt 0.413462 0.250000
vt 0.432692 0.250000
vt 0.451923 0.250000
vt 0.471154 0.250000
vt 0.490385 0.250000
vt 0.509615 0.250000
vt 0.528846 0.250000
vt 0.548077 0.250000
vt 0.567308 0.250000
vt 0.586538 0.250000
vt 0.394231 0.000000
vt 0.375000 0.000000
vt 0.413462 0.000000
vt 0.432692 0.000000
vt 0.451923 0.000000
vt 0.471154 0.000000
vt 0.490385 0.000000
vt 0.509615 0.000000
vt 0.528846 0.000000
vt 0.548077 0.000000
vt 0.567308 0.000000
vt 0.586538 0.000000
vt 0.625000 1.000000
vn 0.3827 0.0000 -0.9239
vn -0.9239 0.0000 -0.3827
vn 0.9912 -0.1322 0.0000
vn -0.9912 -0.1322 -0.0000
vn 0.3827 -0.0000 0.9239
vn -0.9239 -0.0000 0.3827
vn 0.9912 0.1322 -0.0000
vn -0.9912 0.1322 0.0000
vn 0.9239 -0.0000 0.3827
vn -0.0000 -0.1322 0.9912
vn 0.0000 -0.1322 -0.9912
vn -0.3827 0.0000 -0.9239
vn -0.0000 0.1322 0.9912
vn 0.0000 0.1322 -0.9912
vn -0.3827 -0.0000 0.9239
vn 0.9239 0.0000 -0.3827
vn 0.9943 0.1067 0.0054
vn -0.0767 -0.0778 0.9940
vn -0.9400 0.3353 0.0623
vn -0.0163 -0.1396 -0.9901
vn 0.0074 -0.1870 -0.9823
vn -0.0651 0.2347 -0.9699
vn 0.0258 -0.2184 -0.9755
vn -0.0408 0.1076 -0.9934
vn -0.0814 -0.0027 -0.9967
vn -0.0320 0.1449 -0.9889
vn 0.0702 0.0478 -0.9964
vn 0.0141 -0.0396 -0.9991
vn 0.0227 -0.0512 -0.9984
vn -0.0440 -0.1229 -0.9914
vn -0.0528 -0.1189 -0.9915
vn -0.0565 -0.1256 -0.9905
vn -0.0478 0.2057 -0.9774
vn 0.1559 -0.0823 -0.9843
vn -0.9506 -0.2996 -0.0805
vn -0.9831 -0.1772 -0.0456
vn -0.9031 0.4195 0.0915
vn -0.9853 -0.1226 -0.1191
vn -0.9987 -0.0308 -0.0401
vn -0.9883 -0.1493 -0.0302
vn -0.9927 0.0981 0.0703
vn -0.9968 -0.0586 0.0541
vn -0.9977 0.0301 0.0611
vn -0.9929 -0.1127 0.0380
vn -0.9928 -0.1147 0.0342
vn -0.9932 -0.1118 0.0327
vn -0.9980 0.0517 0.0364
vn -0.9957 -0.0406 0.0835
vn 0.1552 0.2142 0.9644
vn -0.0119 -0.0920 0.9957
vn -0.0489 0.0462 0.9977
vn 0.0764 0.1119 0.9908
vn -0.0013 0.0183 0.9998
vn -0.0176 0.0994 0.9949
vn -0.1019 -0.0718 0.9922
vn -0.0443 -0.2317 0.9718
vn 0.0197 0.1670 0.9858
vn -0.0275 -0.2144 0.9764
vn 0.0115 0.3057 0.9520
vn -0.0747 -0.0445 0.9962
vn -0.0791 -0.0470 0.9958
vn -0.0811 -0.0432 0.9958
vn 0.9974 0.0211 0.0696
vn 0.9990 -0.0446 0.0089
vn 0.9990 -0.0349 0.0262
vn 0.9712 0.2384 -0.0031
vn 0.9875 -0.1528 0.0398
vn 0.9730 -0.2301 -0.0153
vn 0.9417 0.3125 -0.1244
vn 0.9978 -0.0657 -0.0054
vn 0.9829 0.1744 0.0592
vn 0.9827 0.1758 0.0575
vn 0.9831 0.1738 0.0566
vn 0.9897 -0.1304 0.0589
vn 0.9401 -0.3285 0.0915
vn 0.9018 0.4093 -0.1388
vn 0.9937 -0.0900 0.0664
vn 0.0600 0.2986 0.9525
vn -0.9845 -0.1494 -0.0922
vn -0.0965 0.0965 -0.9906
vn -0.0670 0.0211 -0.9975
vn 0.0264 -0.0462 -0.9986
vn -0.0411 -0.0344 -0.9986
vn -0.0794 0.2185 -0.9726
vn -0.0320 -0.1541 -0.9875
vn 0.0670 -0.1619 -0.9845
vn 0.0138 0.2119 -0.9772
vn 0.0227 -0.0668 -0.9975
vn -0.0523 0.1768 -0.9829
vn -0.0485 -0.1319 -0.9901
vn 0.1430 -0.4050 -0.9031
vn -0.0153 0.3608 -0.9325
vn -0.9794 -0.1966 -0.0454
vn -0.9751 0.1987 0.0988
vn -0.9618 -0.2479 -0.1163
vn -0.9934 0.1075 -0.0399
vn -0.9995 -0.0026 -0.0305
vn -0.9890 0.1304 0.0700
vn -0.9973 0.0487 0.0542
vn -0.9974 -0.0377 0.0611
vn -0.9981 -0.0506 0.0343
vn -0.9934 -0.1090 0.0362
vn -0.9802 0.1802 0.0822
vn -0.9936 -0.0922 0.0658
vn -0.0113 -0.3291 0.9442
vn -0.0480 -0.1943 0.9798
vn 0.0717 0.3619 0.9295
vn -0.0013 -0.1403 0.9901
vn -0.0176 -0.0327 0.9993
vn -0.1007 -0.1685 0.9805
vn -0.0454 0.0959 0.9944
vn 0.0200 -0.0546 0.9983
vn -0.0281 0.0292 0.9992
vn 0.0121 -0.1096 0.9939
vn -0.0790 0.0537 0.9954
vn -0.0768 -0.0403 0.9962
vn 0.9818 0.1895 0.0088
vn 0.9951 -0.0955 0.0261
vn 0.9988 0.0485 -0.0031
vn 0.9933 0.1083 0.0401
vn 0.9997 0.0181 -0.0158
vn 0.9879 0.0874 -0.1280
vn 0.9968 -0.0800 -0.0054
vn 0.9652 -0.2553 0.0565
vn 0.9832 0.1730 0.0585
vn 0.9663 -0.2396 0.0940
vn 0.9553 0.2564 -0.1471
vn 0.9987 -0.0514 0.0055
s 1
f 1/1/1 2/2/1 3/3/1
f 3/3/2 4/4/2 1/1/2
f 5/5/3 6/6/3 1/1/3
f 1/1/4 7/7/4 5/5/4
f 8/8/5 9/9/5 5/5/5
f 5/5/6 10/10/6 8/8/6
f 3/3/7 11/11/7 8/8/7
f 8/8/8 12/12/8 3/3/8
f 13/13/9 11/11/9 14/14/9
f 14/14/1 7/7/1 13/13/1
f 15/15/10 9/9/10 13/13/10
f 13/13/11 16/16/11 15/15/11
f 17/17/6 18/18/6 15/15/6
f 15/15/12 19/19/12 17/17/12
f 14/14/13 20/20/13 17/17/13
f 17/17/14 10/10/14 14/14/14
f 21/21/15 20/20/15 22/22/15
f 22/22/9 16/16/9 21/21/9
f 23/23/4 18/18/4 21/21/4
f 21/21/3 24/24/3 23/23/3
f 25/25/12 26/26/12 23/23/12
f 23/23/16 27/27/16 25/25/16
f 22/22/8 28/28/8 25/25/8
f 25/25/7 19/19/7 22/22/7
f 29/29/2 28/28/2 30/30/2
f 30/30/15 24/24/15 29/29/15
f 31/31/11 26/26/11 29/29/11
f 29/29/10 4/32/10 31/31/10
f 32/33/16 6/34/16 31/31/16
f 31/31/5 12/35/5 32/33/5
f 30/30/14 2/36/14 32/33/14
f 32/33/13 27/27/13 30/30/13
f 1/1/1 6/6/1 2/2/1
f 3/3/2 12/12/2 4/4/2
f 5/5/3 9/9/3 6/6/3
f 1/1/4 4/4/4 7/7/4
f 8/8/5 11/11/5 9/9/5
f 5/5/6 7/7/6 10/10/6
f 3/3/7 2/2/7 11/11/7
f 8/8/8 10/10/8 12/12/8
f 13/13/9 9/9/9 11/11/9
f 14/14/1 10/10/1 7/7/1
f 15/15/10 18/18/10 9/9/10
f 13/13/11 7/7/11 16/16/11
f 17/17/6 20/20/6 18/18/6
f 15/15/12 16/16/12 19/19/12
f 14/14/13 11/11/13 20/20/13
f 17/17/14 19/19/14 10/10/14
f 21/21/15 18/18/15 20/20/15
f 22/22/9 19/19/9 16/16/9
f 23/23/4 26/26/4 18/18/4
f 21/21/3 16/16/3 24/24/3
f 25/25/12 28/28/12 26/26/12
f 23/23/16 24/24/16 27/27/16
f 22/22/8 20/20/8 28/28/8
f 25/25/7 27/27/7 19/19/7
f 29/29/2 26/26/2 28/28/2
f 30/30/15 27/27/15 24/24/15
f 31/31/11 6/34/11 26/26/11
f 29/29/10 24/24/10 4/32/10
f 32/33/16 2/36/16 6/34/16
f 31/31/5 4/32/5 12/35/5
f 30/30/14 28/28/14 2/36/14
f 32/33/13 12/35/13 27/27/13
f 33/37/17 35/38/17 34/39/17
f 36/40/18 34/39/18 37/41/18
f 38/42/19 37/41/19 39/43/19
f 40/44/20 39/43/20 35/45/20
f 41/46/21 43/47/21 42/48/21
f 44/49/22 41/46/22 45/50/22
f 46/51/23 44/49/23 47/52/23
f 48/53/24 46/51/24 49/54/24
f 50/55/25 48/53/25 51/56/25
f 52/57/26 50/55/26 53/58/26
f 54/59/27 52/57/27 55/60/27
f 56/61/28 54/59/28 57/62/28
f 58/63/29 56/61/29 59/64/29
f 60/65/30 58/63/31 61/66/32
f 62/67/33 60/65/33 63/68/33
f 39/43/34 62/67/34 64/69/34
f 65/70/35 66/71/35 43/47/35
f 67/72/36 65/70/36 41/46/36
f 68/73/37 67/72/37 44/49/37
f 69/74/38 68/73/38 46/51/38
f 70/75/39 69/74/39 48/53/39
f 71/76/40 70/75/40 50/55/40
f 72/77/41 71/76/41 52/57/41
f 73/78/42 72/77/42 54/59/42
f 74/79/43 73/78/43 56/61/43
f 75/80/44 74/79/45 58/63/46
f 76/81/47 75/80/47 60/65/47
f 37/41/48 76/81/48 62/67/48
f 77/82/49 78/83/49 66/71/49
f 79/84/50 77/82/50 65/70/50
f 80/85/51 79/84/51 67/72/51
f 81/86/52 80/85/52 68/73/52
f 82/87/53 81/86/53 69/74/53
f 83/88/54 82/87/54 70/75/54
f 84/89/55 83/88/55 71/76/55
f 85/90/56 84/89/56 72/77/56
f 86/91/57 85/90/57 73/78/57
f 87/92/58 86/91/58 74/79/58
f 88/93/59 87/92/59 75/80/59
f 34/39/60 88/93/61 76/81/62
f 45/94/63 42/95/63 78/83/63
f 47/96/64 45/94/64 77/82/64
f 49/97/65 47/96/65 79/84/65
f 51/98/66 49/97/66 80/85/66
f 53/99/67 51/98/67 81/86/67
f 55/100/68 53/99/68 82/87/68
f 57/101/69 55/100/69 83/88/69
f 59/102/70 57/101/70 84/89/70
f 61/103/71 59/102/72 85/90/73
f 63/104/74 61/103/74 86/91/74
f 64/105/75 63/104/75 87/92/75
f 35/38/76 64/105/76 88/93/76
f 33/37/77 34/39/77 36/40/77
f 36/40/78 37/41/78 38/42/78
f 38/42/79 39/43/79 40/44/79
f 40/44/80 35/45/80 33/106/80
f 41/46/81 42/48/81 45/50/81
f 44/49/82 45/50/82 47/52/82
f 46/51/83 47/52/83 49/54/83
f 48/53/84 49/54/84 51/56/84
f 50/55/85 51/56/85 53/58/85
f 52/57/86 53/58/86 55/60/86
f 54/59/87 55/60/87 57/62/87
f 56/61/88 57/62/88 59/64/88
f 58/63/89 59/64/89 61/66/89
f 60/65/30 61/66/32 63/68/90
f 62/67/91 63/68/91 64/69/91
f 39/43/92 64/69/92 35/45/92
f 65/70/93 43/47/93 41/46/93
f 67/72/94 41/46/94 44/49/94
f 68/73/95 44/49/95 46/51/95
f 69/74/96 46/51/96 48/53/96
f 70/75/97 48/53/97 50/55/97
f 71/76/98 50/55/98 52/57/98
f 72/77/99 52/57/99 54/59/99
f 73/78/100 54/59/100 56/61/100
f 74/79/101 56/61/101 58/63/101
f 75/80/44 58/63/46 60/65/102
f 76/81/103 60/65/103 62/67/103
f 37/41/104 62/67/104 39/43/104
f 77/82/105 66/71/105 65/70/105
f 79/84/106 65/70/106 67/72/106
f 80/85/107 67/72/107 68/73/107
f 81/86/108 68/73/108 69/74/108
f 82/87/109 69/74/109 70/75/109
f 83/88/110 70/75/110 71/76/110
f 84/89/111 71/76/111 72/77/111
f 85/90/112 72/77/112 73/78/112
f 86/91/113 73/78/113 74/79/113
f 87/92/114 74/79/114 75/80/114
f 88/93/115 75/80/115 76/81/115
f 34/39/60 76/81/62 37/41/116
f 45/94/117 78/83/117 77/82/117
f 47/96/118 77/82/118 79/84/118
f 49/97/119 79/84/119 80/85/119
f 51/98/120 80/85/120 81/86/120
f 53/99/121 81/86/121 82/87/121
f 55/100/122 82/87/122 83/88/122
f 57/101/123 83/88/123 84/89/123
f 59/102/124 84/89/124 85/90/124
f 61/103/71 85/90/73 86/91/125
f 63/104/126 86/91/126 87/92/126
f 64/105/127 87/92/127 88/93/127
f 35/38/128 88/93/128 34/39/128
