# Blender 3.3.0
# www.blender.org
o wall
v -1.000000 3.000000 -1.000000
v 1.000000 0.000000 -1.000000
v -1.000000 3.000000 1.000000
v 1.000000 0.000000 1.000000
v -1.000000 0.153840 -1.000000
v -0.846160 0.000000 -1.000000
v -0.992471 0.106301 -1.000000
v -0.970619 0.063415 -1.000000
v -0.936585 0.029381 -1.000000
v -0.893699 0.007529 -1.000000
v -0.846160 0.000000 1.000000
v -1.000000 0.153840 1.000000
v -0.893700 0.007529 1.000000
v -0.936585 0.029381 1.000000
v -0.970619 0.063415 1.000000
v -0.992471 0.106301 1.000000
vn -0.0000 1.0000 -0.0000
vn 0.0785 0.9969 -0.0000
vn 0.9969 0.0785 -0.0000
vn 0.9511 0.3090 -0.0000
vn 0.8090 0.5878 -0.0000
vn 0.5878 0.8090 -0.0000
vn 0.3090 0.9511 -0.0000
vn 1.0000 -0.0000 -0.0000
vt 0.405447 0.999936
vt 0.405447 0.000064
vt 0.000064 0.999936
vt 0.000064 0.000064
vt 0.405446 0.423044
vt 0.405446 0.374265
vt 0.405446 0.413288
vt 0.405446 0.403532
vt 0.405446 0.393776
vt 0.405446 0.384021
vt 0.000064 0.374264
vt 0.000064 0.423044
vt 0.000064 0.384020
vt 0.000064 0.393776
vt 0.000064 0.403532
vt 0.000064 0.413288
s 1
f 4/4/1 6/6/2 11/11/2
f 12/12/3 7/7/4 5/5/3
f 16/16/4 8/8/5 7/7/4
f 15/15/5 9/9/6 8/8/5
f 14/14/6 10/10/7 9/9/6
f 13/13/7 6/6/2 10/10/7
f 5/5/3 3/3/8 12/12/3
f 4/4/1 2/2/1 6/6/2
f 12/12/3 16/16/4 7/7/4
f 16/16/4 15/15/5 8/8/5
f 15/15/5 14/14/6 9/9/6
f 14/14/6 13/13/7 10/10/7
f 13/13/7 11/11/2 6/6/2
f 5/5/3 1/1/8 3/3/8
