# Blender v2.81 (sub 16) OBJ File: ''
# www.blender.org
mtllib bars top.mtl
o Plane.003
v -0.500000 -0.300000 0.500000
v -0.500000 -0.300000 -0.500000
v 0.500000 -0.300000 -0.500000
v 0.500000 -0.300000 0.500000
v -0.500000 -0.000000 0.500000
v 0.500000 -0.000000 0.500000
v 0.500000 0.000000 -0.500000
v -0.500000 0.000000 -0.500000
vt 0.000000 0.000000
vt 0.000000 1.000000
vt 1.000000 1.000000
vt 1.000000 0.000000
vt 0.000000 0.000000
vt 1.000000 0.000000
vt 1.000000 1.000000
vt 0.000000 1.000000
vn 0.0000 -1.0000 -0.0000
vn 0.0000 1.0000 0.0000
vn 1.0000 -0.0000 0.0000
vn -1.0000 0.0000 0.0000
vn 0.0000 0.0000 -1.0000
vn 0.0000 -0.0000 1.0000
usemtl None.004
s 1
f 1/1/1 2/2/1 3/3/1 4/4/1
f 5/5/2 6/6/2 7/7/2 8/8/2
f 4/4/3 3/3/3 7/7/3 6/6/3
f 2/2/4 1/1/4 5/5/4 8/8/4
f 3/3/5 2/2/5 8/8/5 7/7/5
f 1/1/6 4/4/6 6/6/6 5/5/6
