# Blender 3.6.2
# www.blender.org
o Cube
v 1.000000 1.000000 -1.000000
v 1.000000 -1.000000 -1.000000
v 1.000000 1.000000 1.000000
v 1.000000 -1.000000 1.000000
v -1.000000 1.000000 -1.000000
v -1.000000 -1.000000 -1.000000
v -1.000000 1.000000 1.000000
v -1.000000 -1.000000 1.000000
vn -0.0000 1.0000 -0.0000
vn -0.0000 -0.0000 1.0000
vn -1.0000 -0.0000 -0.0000
vn -0.0000 -1.0000 -0.0000
vn 1.0000 -0.0000 -0.0000
vn -0.0000 -0.0000 -1.0000
vt 0.999900 0.999900
vt 0.000100 0.000100
vt 0.999900 0.000100
vt 0.999900 0.999900
vt 0.000100 0.000100
vt 0.999900 0.000100
vt 0.000100 0.999900
vt 0.000100 0.999900
s 0
f 5/1/1 3/2/1 1/3/1
f 3/1/2 8/2/2 4/3/2
f 7/4/3 6/5/3 8/6/3
f 2/2/4 8/1/4 6/7/4
f 1/1/5 4/2/5 2/3/5
f 5/4/6 2/5/6 6/6/6
f 5/1/1 7/7/1 3/2/1
f 3/1/2 7/7/2 8/2/2
f 7/4/3 5/8/3 6/5/3
f 2/2/4 4/3/4 8/1/4
f 1/1/5 3/7/5 4/2/5
f 5/4/6 1/8/6 2/5/6
