# Blender 4.0.2
# www.blender.org
o Cylinder.009
v -0.184197 0.022123 -0.096583
v -0.043546 0.670812 -0.022833
v -0.061953 0.022123 -0.198541
v -0.014646 0.670812 -0.046937
v 0.096583 0.022123 -0.184197
v 0.022833 0.670812 -0.043546
v 0.198541 0.022123 -0.061953
v 0.046937 0.670812 -0.014646
v 0.184197 0.022123 0.096583
v 0.043546 0.670812 0.022833
v 0.061953 0.022123 0.198541
v 0.014646 0.670812 0.046937
v -0.096583 0.022123 0.184197
v -0.022833 0.670812 0.043546
v -0.198541 0.022123 0.061953
v -0.046937 0.670812 0.014646
v 0.123945 -0.011870 0.397211
v 0.112088 0.046473 0.359211
v -0.397211 -0.011870 0.123945
v -0.359211 0.046473 0.112088
v 0.397211 -0.011870 -0.123945
v 0.359211 0.046473 -0.112088
v -0.123945 -0.011870 -0.397211
v -0.112088 0.046473 -0.359211
v -0.010580 0.670812 -0.033905
v -0.031455 0.670812 -0.016493
v 0.016493 0.670812 -0.031455
v 0.033905 0.670812 -0.010580
v 0.031455 0.670812 0.016493
v 0.010580 0.670812 0.033905
v -0.016493 0.670812 0.031455
v -0.033905 0.670812 0.010580
v -0.056873 -0.002377 -0.182264
v -0.169095 -0.002377 -0.088664
v 0.088664 -0.002377 -0.169095
v 0.182264 -0.002377 -0.056873
v 0.169095 -0.002377 0.088664
v 0.056873 -0.002377 0.182264
v -0.088664 -0.002377 0.169095
v -0.182264 -0.002377 0.056873
vn -0.7464 -0.5383 -0.3914
vn -0.6165 0.7180 -0.3232
vn -0.2073 0.7180 -0.6645
vn -0.2510 -0.5383 -0.8045
vn 0.3232 0.7180 -0.6165
vn 0.3914 -0.5383 -0.7464
vn 0.6645 0.7180 -0.2073
vn 0.8045 -0.5383 -0.2510
vn 0.6165 0.7180 0.3232
vn 0.7464 -0.5383 0.3914
vn 0.2073 0.7180 0.6645
vn 0.2510 -0.5383 0.8045
vn -0.3232 0.7180 0.6165
vn -0.3914 -0.5383 0.7464
vn -0.6645 0.7180 0.2073
vn 0.3154 0.7339 -0.6015
vn 0.6484 0.7339 -0.2023
vn -0.8045 -0.5383 0.2510
vn 0.2461 0.5636 0.7886
vn 0.1812 0.7937 0.5807
vn -0.5807 0.7937 0.1812
vn -0.7886 0.5636 0.2461
vn -0.1812 0.7937 -0.5807
vn -0.2461 0.5636 -0.7886
vn 0.5807 0.7937 -0.1812
vn 0.7886 0.5636 -0.2461
vn 0.4525 -0.2249 -0.8629
vn 0.9301 -0.2249 -0.2902
vn 0.2023 0.7339 0.6484
vn -0.3154 0.7339 0.6015
vn -0.6015 0.7339 -0.3154
vn -0.2023 0.7339 -0.6484
vn 0.6015 0.7339 0.3154
vn -0.6484 0.7339 0.2023
vn -0.8629 -0.2249 -0.4525
vn -0.2902 -0.2249 -0.9301
vn -0.4525 -0.2249 0.8629
vn -0.9301 -0.2249 0.2902
vn 0.8629 -0.2249 0.4525
vn 0.2902 -0.2249 0.9301
vt 1.000000 0.500000
vt 1.000000 1.000000
vt 0.875000 1.000000
vt 0.875000 0.500000
vt 0.750000 1.000000
vt 0.750000 0.500000
vt 0.625000 1.000000
vt 0.625000 0.500000
vt 0.500000 1.000000
vt 0.500000 0.500000
vt 0.375000 1.000000
vt 0.375000 0.500000
vt 0.250000 1.000000
vt 0.250000 0.500000
vt 0.125000 1.000000
vt 0.125000 0.500000
vt 0.000000 1.000000
vt 0.000000 0.500000
vt 0.750000 0.490000
vt 0.919706 0.419706
vt 0.990000 0.250000
vt 0.919706 0.080294
vt 0.750000 0.010000
vt 0.580294 0.080294
vt 0.510000 0.250000
vt 0.580294 0.419706
vt 0.375000 0.000000
vt 0.625000 0.000000
vt 0.625000 0.250000
vt 0.375000 0.250000
vt 0.625000 0.750000
vt 0.375000 0.750000
vt 0.875000 0.750000
s 1
f 1/1/1 2/2/2 4/3/3 3/4/4
f 3/4/4 4/3/3 6/5/5 5/6/6
f 5/6/6 6/5/5 8/7/7 7/8/8
f 7/8/8 8/7/7 10/9/9 9/10/10
f 9/10/10 10/9/9 12/11/11 11/12/12
f 11/12/12 12/11/11 14/13/13 13/14/14
f 16/15/15 14/13/13 31/13/16 32/15/17
f 13/14/14 14/13/13 16/15/15 15/16/18
f 15/16/18 16/15/15 2/17/2 1/18/1
f 1/19/1 3/20/4 5/21/6 7/22/8 9/23/10 11/24/12 13/25/14 15/26/18
f 17/27/19 18/28/20 20/29/21 19/30/22
f 19/30/22 20/29/21 24/8/23 23/12/24
f 23/12/24 24/8/23 22/31/25 21/32/26
f 21/32/26 22/31/25 18/7/20 17/11/19
f 32/15/17 31/13/16 39/13/27 40/15/28
f 24/8/23 20/4/21 18/33/20 22/31/25
f 6/5/5 4/3/3 25/3/29 27/5/30
f 12/11/11 10/9/9 29/9/31 30/11/32
f 2/17/2 16/15/15 32/15/17 26/17/33
f 4/3/3 2/2/2 26/2/33 25/3/29
f 8/7/7 6/5/5 27/5/30 28/7/34
f 14/13/13 12/11/11 30/11/32 31/13/16
f 10/9/9 8/7/7 28/7/34 29/9/31
f 30/11/32 29/9/31 37/9/35 38/11/36
f 28/7/34 27/5/30 35/5/37 36/7/38
f 25/3/29 26/2/33 34/2/39 33/3/40
f 26/17/33 32/15/17 40/15/28 34/17/39
f 31/13/16 30/11/32 38/11/36 39/13/27
f 29/9/31 28/7/34 36/7/38 37/9/35
f 27/5/30 25/3/29 33/3/40 35/5/37
