# Blender 4.0.2
# www.blender.org
o Cube.009
v 7.333111 -1.000000 2.974438
v 7.333111 139.285858 2.974438
v 7.333111 -1.000000 2.138192
v 7.333111 139.285858 2.138192
v 8.169357 -1.000000 2.974438
v 8.169357 139.285858 2.974438
v 8.169357 -1.000000 2.138192
v 8.169357 139.285858 2.138192
v 12.022243 -1.000000 2.974438
v 12.022243 139.285858 2.974438
v 12.022243 -1.000000 2.138192
v 12.022243 139.285858 2.138192
v 11.185997 -1.000000 2.974438
v 11.185997 139.285858 2.974438
v 11.185997 -1.000000 2.138192
v 11.185997 139.285858 2.138192
v 7.333111 -1.000000 6.126014
v 7.333111 139.285858 6.126014
v 7.333111 -1.000000 6.962259
v 7.333111 139.285858 6.962259
v 8.169357 -1.000000 6.126014
v 8.169357 139.285858 6.126014
v 8.169357 -1.000000 6.962259
v 8.169357 139.285858 6.962259
v 12.022243 -1.000000 6.126014
v 12.022243 139.285858 6.126014
v 12.022243 -1.000000 6.962259
v 12.022243 139.285858 6.962259
v 11.185997 -1.000000 6.126014
v 11.185997 139.285858 6.126014
v 11.185997 -1.000000 6.962259
v 11.185997 139.285858 6.962259
vn -1.0000 -0.0000 -0.0000
vn -0.0000 -0.0000 -1.0000
vn 1.0000 -0.0000 -0.0000
vn -0.0000 -0.0000 1.0000
vn -0.0000 -1.0000 -0.0000
vn -0.0000 1.0000 -0.0000
vt 0.625000 0.000000
vt 0.375000 0.250000
vt 0.375000 0.000000
vt 0.625000 0.250000
vt 0.375000 0.500000
vt 0.625000 0.500000
vt 0.375000 0.750000
vt 0.625000 0.750000
vt 0.375000 1.000000
vt 0.125000 0.750000
vt 0.125000 0.500000
vt 0.875000 0.500000
vt 0.625000 1.000000
vt 0.875000 0.750000
s 0
f 2/1/1 3/2/1 1/3/1
f 4/4/2 7/5/2 3/2/2
f 8/6/3 5/7/3 7/5/3
f 6/8/4 1/9/4 5/7/4
f 7/5/5 1/10/5 3/11/5
f 4/12/6 6/8/6 8/6/6
f 11/2/3 10/1/3 9/3/3
f 15/5/2 12/4/2 11/2/2
f 13/7/1 16/6/1 15/5/1
f 9/9/4 14/8/4 13/7/4
f 9/10/5 15/5/5 11/11/5
f 14/8/6 12/12/6 16/6/6
f 19/2/1 18/1/1 17/3/1
f 23/5/4 20/4/4 19/2/4
f 21/7/3 24/6/3 23/5/3
f 17/9/2 22/8/2 21/7/2
f 17/10/5 23/5/5 19/11/5
f 22/8/6 20/12/6 24/6/6
f 26/1/3 27/2/3 25/3/3
f 28/4/4 31/5/4 27/2/4
f 32/6/1 29/7/1 31/5/1
f 30/8/2 25/9/2 29/7/2
f 31/5/5 25/10/5 27/11/5
f 28/12/6 30/8/6 32/6/6
f 2/1/1 4/4/1 3/2/1
f 4/4/2 8/6/2 7/5/2
f 8/6/3 6/8/3 5/7/3
f 6/8/4 2/13/4 1/9/4
f 7/5/5 5/7/5 1/10/5
f 4/12/6 2/14/6 6/8/6
f 11/2/3 12/4/3 10/1/3
f 15/5/2 16/6/2 12/4/2
f 13/7/1 14/8/1 16/6/1
f 9/9/4 10/13/4 14/8/4
f 9/10/5 13/7/5 15/5/5
f 14/8/6 10/14/6 12/12/6
f 19/2/1 20/4/1 18/1/1
f 23/5/4 24/6/4 20/4/4
f 21/7/3 22/8/3 24/6/3
f 17/9/2 18/13/2 22/8/2
f 17/10/5 21/7/5 23/5/5
f 22/8/6 18/14/6 20/12/6
f 26/1/3 28/4/3 27/2/3
f 28/4/4 32/6/4 31/5/4
f 32/6/1 30/8/1 29/7/1
f 30/8/2 26/13/2 25/9/2
f 31/5/5 29/7/5 25/10/5
f 28/12/6 26/14/6 30/8/6
