# Blender 4.0.2
# www.blender.org
o Cube
v 5.015749 0.072471 -4.935124
v 5.300000 -0.590443 -5.400000
v 5.015749 0.072471 5.115749
v 5.300000 -0.590443 5.400000
v -5.015749 0.072471 -4.935124
v -5.300000 -0.590443 -5.400000
v -5.015749 0.072471 5.115749
v -5.300000 -0.590443 5.400000
v 5.300000 0.072471 5.219375
v -5.300000 0.072471 5.219375
v 5.300000 0.072471 -5.219375
v -5.300000 0.072471 -5.219375
v 5.300000 4.683144 5.219375
v -5.300000 4.683144 5.219375
v 5.300000 4.683144 -5.219375
v -5.300000 4.683144 -5.219375
v 5.015749 4.683144 5.115749
v -5.015749 4.683144 5.115749
v 5.015749 4.683144 -4.935124
v -5.015749 4.683144 -4.935124
v 5.300000 -0.108154 -5.400000
v 5.300000 -0.108154 5.400000
v -5.300000 -0.108154 5.400000
v -5.300000 -0.108154 -5.400000
v 5.015749 -0.108154 5.115749
v -5.015749 -0.108154 5.115749
v 5.015749 -0.108154 -5.115749
v -5.015749 -0.108154 -5.115749
v -5.300000 4.863769 5.400000
v 5.300000 4.863769 5.400000
v 5.300000 4.863769 -5.400000
v -5.300000 4.863769 -5.400000
v 5.015749 4.863769 5.115749
v -5.015749 4.863769 5.115749
v 5.015749 4.863769 -5.115749
v -5.015749 4.863769 -5.115749
v 5.015749 0.072471 5.256598
v 5.015749 4.683144 5.256598
v -5.015749 4.683144 5.256598
v -5.015749 0.072471 5.256598
v 5.126447 0.072471 5.115749
v 5.126447 4.683144 5.115749
v -5.126447 4.683144 5.115749
v -5.126447 0.072471 5.115749
v 5.126447 0.072471 -4.935124
v -5.126447 0.072471 -4.935124
v 5.126447 4.683144 -4.935124
v -5.126447 4.683144 -4.935124
v 5.195493 0.072471 -5.219375
v 5.195493 0.072471 5.219375
v -5.195493 0.072471 5.219375
v -5.195493 0.072471 -5.219375
v -5.195493 4.683144 5.219375
v 5.195493 4.683144 5.219375
v 5.195493 4.683144 -5.219375
v -5.195493 4.683144 -5.219375
v 4.842462 -0.952837 -4.977591
v 4.842462 11.447393 -4.977591
v 4.842462 -0.952837 -5.457588
v 4.842462 11.447393 -5.457588
v 5.322459 -0.952837 -4.977591
v 5.322459 11.447393 -4.977591
v 5.322459 -0.952837 -5.457588
v 5.322459 11.447393 -5.457588
v -4.842462 -0.952837 -4.977591
v -4.842462 11.447393 -4.977591
v -4.842462 -0.952837 -5.457588
v -4.842462 11.447393 -5.457588
v -5.322459 -0.952837 -4.977591
v -5.322459 11.447393 -4.977591
v -5.322459 -0.952837 -5.457588
v -5.322459 11.447393 -5.457588
v 4.842462 -0.952837 4.977591
v 4.842462 11.447393 4.977591
v 4.842462 -0.952837 5.457588
v 4.842462 11.447393 5.457588
v 5.322459 -0.952837 4.977591
v 5.322459 11.447393 4.977591
v 5.322459 -0.952837 5.457588
v 5.322459 11.447393 5.457588
v -4.842462 -0.952837 4.977591
v -4.842462 11.447393 4.977591
v -4.842462 -0.952837 5.457588
v -4.842462 11.447393 5.457588
v -5.322459 -0.952837 4.977591
v -5.322459 11.447393 4.977591
v -5.322459 -0.952837 5.457588
v -5.322459 11.447393 5.457588
v 5.300000 10.782207 -5.400000
v 5.300000 10.782207 5.400000
v -5.300000 10.782207 -5.400000
v -5.300000 10.782207 5.400000
v 5.300000 11.264496 -5.400000
v 5.300000 11.264496 5.400000
v -5.300000 11.264496 5.400000
v -5.300000 11.264496 -5.400000
v -1.641373 10.278580 -4.821179
v -1.641373 11.327593 -4.821179
v -1.764139 10.155813 -5.495297
v -1.764139 11.450359 -5.495297
v 1.641373 10.278580 -4.821179
v 1.641373 11.327593 -4.821179
v 1.764139 10.155813 -5.495297
v 1.764139 11.450359 -5.495297
v -1.764139 10.155813 -4.821179
v -1.764139 11.450359 -4.821179
v 1.764139 11.450359 -4.821179
v 1.764139 10.155813 -4.821179
v -1.641373 10.278580 -4.904541
v -1.641373 11.327593 -4.904541
v 1.641373 11.327593 -4.904541
v 1.641373 10.278580 -4.904541
vn -0.0000 1.0000 -0.0000
vn -1.0000 -0.0000 -0.0000
vn 1.0000 -0.0000 -0.0000
vn -0.0000 -0.0000 -1.0000
vn -0.0000 -1.0000 -0.0000
vn -0.7071 -0.0000 -0.7071
vn 0.7071 -0.0000 -0.7071
vn -0.0000 -0.0000 1.0000
vt 0.346066 0.631363
vt 0.498598 0.783735
vt 0.346066 0.783735
vt 0.019813 0.788053
vt 0.180821 0.949060
vt 0.019813 0.949060
vt 0.341828 0.788052
vt 0.502836 0.949060
vt 0.341828 0.949060
vt 0.180821 0.788053
vt 0.500143 0.788053
vt 0.344521 0.788053
vt 0.341828 0.627045
vt 0.498598 0.631363
vt 0.502836 0.788053
vt 0.502836 0.627045
vt 0.348759 0.631363
vt 0.178128 0.788052
vt 0.022506 0.788052
vt 0.498598 0.631363
vt 0.348759 0.783735
vt 0.499315 0.571845
vt 0.378287 0.450817
vt 0.499315 0.450817
vt 0.378287 0.571845
vt 0.257259 0.450817
vt 0.257259 0.571845
vt 0.136231 0.450817
vt 0.136231 0.571845
vt 0.015202 0.450817
vt 0.136231 0.329789
vt 0.257259 0.329789
vt 0.257259 0.692874
vt 0.721801 0.289641
vt 0.496801 0.064641
vt 0.721801 0.064641
vt 0.271801 0.289641
vt 0.046801 0.064641
vt 0.271801 0.064641
vt 0.496801 0.289641
vt 0.516000 0.357000
vt 0.633000 0.643000
vt 0.516000 0.643000
vt 0.633000 0.357000
vt 0.750000 0.643000
vt 0.750000 0.357000
vt 0.867000 0.643000
vt 0.871071 0.615877
vt 0.979929 0.615877
vt 0.867000 0.929000
vt 0.750000 0.929000
vt 0.750000 0.071000
vt 0.867000 0.357000
vt 0.979929 0.384122
vt 0.984000 0.643000
vt 0.871071 0.384122
vt 0.984000 0.357000
vt 0.015202 0.571845
vt 0.136231 0.692874
vt 0.046801 0.289641
vt 0.867000 0.071000
s 0
f 28/1/1 25/2/1 27/3/1
f 23/4/2 6/5/2 8/6/2
f 21/7/3 4/8/3 2/9/3
f 24/10/4 2/9/4 6/5/4
f 13/11/5 55/12/5 15/12/5
f 17/2/4 41/2/4 3/2/4
f 27/3/1 24/13/1 28/1/1
f 34/14/1 30/15/1 33/2/1
f 33/2/1 31/7/1 35/3/1
f 36/1/1 29/16/1 34/14/1
f 27/3/6 31/7/6 21/7/6
f 11/12/1 50/11/1 9/11/1
f 18/14/5 48/17/5 20/17/5
f 17/2/5 39/14/5 18/14/5
f 24/13/7 36/1/7 28/1/7
f 9/11/3 21/7/3 11/12/3
f 12/18/2 23/4/2 10/19/2
f 3/2/4 26/14/4 7/20/4
f 1/21/2 25/2/2 3/2/2
f 5/17/3 26/14/3 28/1/3
f 14/19/2 23/4/2 29/4/2
f 13/11/3 22/15/3 9/11/3
f 15/12/3 30/15/3 13/11/3
f 14/19/2 32/10/2 16/18/2
f 18/14/4 33/2/4 17/2/4
f 19/21/2 33/2/2 35/3/2
f 20/17/3 34/14/3 18/14/3
f 19/21/2 27/3/2 1/21/2
f 16/18/2 24/10/2 12/18/2
f 15/12/3 21/7/3 31/7/3
f 20/17/3 28/1/3 36/1/3
f 40/20/4 38/2/4 37/2/4
f 3/2/2 38/2/2 17/2/2
f 18/14/3 40/20/3 7/20/3
f 7/20/1 37/2/1 3/2/1
f 41/2/2 47/21/2 45/21/2
f 44/20/3 48/17/3 43/14/3
f 3/2/1 45/21/1 1/21/1
f 1/21/8 47/21/8 19/21/8
f 19/21/5 42/2/5 17/2/5
f 7/20/4 43/14/4 18/14/4
f 20/17/8 46/17/8 5/17/8
f 5/17/1 44/20/1 7/20/1
f 51/19/2 56/18/2 52/18/2
f 49/12/3 54/11/3 50/11/3
f 14/19/4 51/19/4 10/19/4
f 15/12/8 49/12/8 11/12/8
f 10/19/1 52/18/1 12/18/1
f 16/18/5 53/19/5 14/19/5
f 9/11/4 54/11/4 13/11/4
f 12/18/8 56/18/8 16/18/8
f 64/22/3 61/23/3 63/24/3
f 60/25/4 63/26/4 59/23/4
f 58/27/2 59/28/2 57/26/2
f 62/29/8 57/30/8 61/28/8
f 63/26/5 57/31/5 59/32/5
f 60/33/1 62/29/1 64/27/1
f 69/23/2 72/22/2 71/24/2
f 71/26/4 68/25/4 67/23/4
f 67/28/3 66/27/3 65/26/3
f 65/30/8 70/29/8 69/28/8
f 65/31/5 71/26/5 67/32/5
f 70/29/1 68/33/1 72/27/1
f 77/23/3 80/22/3 79/24/3
f 79/26/8 76/25/8 75/23/8
f 75/28/2 74/27/2 73/26/2
f 73/30/4 78/29/4 77/28/4
f 73/31/5 79/26/5 75/32/5
f 78/29/1 76/33/1 80/27/1
f 88/22/2 85/23/2 87/24/2
f 84/25/8 87/26/8 83/23/8
f 82/27/3 83/28/3 81/26/3
f 86/29/4 81/30/4 85/28/4
f 87/26/5 81/31/5 83/32/5
f 84/33/1 86/29/1 88/27/1
f 95/34/2 91/35/2 92/36/2
f 93/37/3 90/38/3 89/39/3
f 96/40/4 89/39/4 91/35/4
f 90/38/8 95/34/8 92/36/8
f 106/41/2 99/42/2 105/43/2
f 100/44/4 103/45/4 99/42/4
f 104/46/3 108/47/3 103/45/3
f 101/48/1 109/49/1 97/49/1
f 103/45/5 105/50/5 99/51/5
f 100/52/1 107/53/1 104/46/1
f 98/54/8 105/55/8 97/49/8
f 101/48/8 107/53/8 102/56/8
f 97/49/8 108/47/8 101/48/8
f 102/56/8 106/57/8 98/54/8
f 111/56/8 109/49/8 112/48/8
f 97/49/3 110/54/3 98/54/3
f 98/54/5 111/56/5 102/56/5
f 102/56/2 112/48/2 101/48/2
f 28/1/1 26/14/1 25/2/1
f 23/4/2 24/10/2 6/5/2
f 21/7/3 22/15/3 4/8/3
f 24/10/4 21/7/4 2/9/4
f 13/11/5 54/11/5 55/12/5
f 17/2/4 42/2/4 41/2/4
f 27/3/1 21/7/1 24/13/1
f 34/14/1 29/16/1 30/15/1
f 33/2/1 30/15/1 31/7/1
f 36/1/1 32/13/1 29/16/1
f 27/3/6 35/3/6 31/7/6
f 11/12/1 49/12/1 50/11/1
f 18/14/5 43/14/5 48/17/5
f 17/2/5 38/2/5 39/14/5
f 24/13/7 32/13/7 36/1/7
f 9/11/3 22/15/3 21/7/3
f 12/18/2 24/10/2 23/4/2
f 3/2/4 25/2/4 26/14/4
f 1/21/2 27/3/2 25/2/2
f 5/17/3 7/20/3 26/14/3
f 14/19/2 10/19/2 23/4/2
f 13/11/3 30/15/3 22/15/3
f 15/12/3 31/7/3 30/15/3
f 14/19/2 29/4/2 32/10/2
f 18/14/4 34/14/4 33/2/4
f 19/21/2 17/2/2 33/2/2
f 20/17/3 36/1/3 34/14/3
f 19/21/2 35/3/2 27/3/2
f 16/18/2 32/10/2 24/10/2
f 15/12/3 11/12/3 21/7/3
f 20/17/3 5/17/3 28/1/3
f 40/20/4 39/14/4 38/2/4
f 3/2/2 37/2/2 38/2/2
f 18/14/3 39/14/3 40/20/3
f 7/20/1 40/20/1 37/2/1
f 41/2/2 42/2/2 47/21/2
f 44/20/3 46/17/3 48/17/3
f 3/2/1 41/2/1 45/21/1
f 1/21/8 45/21/8 47/21/8
f 19/21/5 47/21/5 42/2/5
f 7/20/4 44/20/4 43/14/4
f 20/17/8 48/17/8 46/17/8
f 5/17/1 46/17/1 44/20/1
f 51/19/2 53/19/2 56/18/2
f 49/12/3 55/12/3 54/11/3
f 14/19/4 53/19/4 51/19/4
f 15/12/8 55/12/8 49/12/8
f 10/19/1 51/19/1 52/18/1
f 16/18/5 56/18/5 53/19/5
f 9/11/4 50/11/4 54/11/4
f 12/18/8 52/18/8 56/18/8
f 64/22/3 62/25/3 61/23/3
f 60/25/4 64/27/4 63/26/4
f 58/27/2 60/29/2 59/28/2
f 62/29/8 58/58/8 57/30/8
f 63/26/5 61/28/5 57/31/5
f 60/33/1 58/59/1 62/29/1
f 69/23/2 70/25/2 72/22/2
f 71/26/4 72/27/4 68/25/4
f 67/28/3 68/29/3 66/27/3
f 65/30/8 66/58/8 70/29/8
f 65/31/5 69/28/5 71/26/5
f 70/29/1 66/59/1 68/33/1
f 77/23/3 78/25/3 80/22/3
f 79/26/8 80/27/8 76/25/8
f 75/28/2 76/29/2 74/27/2
f 73/30/4 74/58/4 78/29/4
f 73/31/5 77/28/5 79/26/5
f 78/29/1 74/59/1 76/33/1
f 88/22/2 86/25/2 85/23/2
f 84/25/8 88/27/8 87/26/8
f 82/27/3 84/29/3 83/28/3
f 86/29/4 82/58/4 81/30/4
f 87/26/5 85/28/5 81/31/5
f 84/33/1 82/59/1 86/29/1
f 95/34/2 96/40/2 91/35/2
f 93/37/3 94/60/3 90/38/3
f 96/40/4 93/37/4 89/39/4
f 90/38/8 94/60/8 95/34/8
f 106/41/2 100/44/2 99/42/2
f 100/44/4 104/46/4 103/45/4
f 104/46/3 107/53/3 108/47/3
f 101/48/1 112/48/1 109/49/1
f 103/45/5 108/47/5 105/50/5
f 100/52/1 106/61/1 107/53/1
f 98/54/8 106/57/8 105/55/8
f 101/48/8 108/47/8 107/53/8
f 97/49/8 105/55/8 108/47/8
f 102/56/8 107/53/8 106/57/8
f 111/56/8 110/54/8 109/49/8
f 97/49/3 109/49/3 110/54/3
f 98/54/5 110/54/5 111/56/5
f 102/56/2 111/56/2 112/48/2
