# Blender 4.0.2
# www.blender.org
o Cube.004
v 4.552005 -7.364306 0.139078
v 4.552005 2.423481 0.139078
v 4.552005 -7.364306 -0.126560
v 4.552005 2.423481 -0.126560
v 4.851417 -7.364306 0.139078
v 4.851417 2.423481 0.139078
v 4.851417 -7.364306 -0.126560
v 4.851417 2.423481 -0.126560
v 0.015759 -7.267736 -0.050281
v 0.015759 -7.267736 0.062800
v 0.015759 2.326910 0.062800
v 0.015759 2.326910 -0.050281
v 4.548854 -7.267736 -0.050281
v 4.548854 2.326910 -0.050281
v 4.548854 -7.267736 0.062800
v 4.548854 2.326910 0.062800
vn 1.0000 -0.0000 -0.0000
vn -0.0000 -0.0000 1.0000
vn -1.0000 -0.0000 -0.0000
vn -0.0000 -0.0000 -1.0000
vn -0.0000 1.0000 -0.0000
vn -0.0000 -1.0000 -0.0000
vt 0.917373 0.929026
vt 0.942587 0.000000
vt 0.942587 0.929026
vt 0.860535 0.929026
vt 0.888954 0.000000
vt 0.888954 0.929026
vt 0.942587 0.929026
vt 0.967800 0.000000
vt 0.967800 0.929026
vt 0.917373 0.000000
vt 0.000000 0.939113
vt 0.025213 0.910694
vt 0.025213 0.939113
vt 0.050427 0.910694
vt 0.050427 0.939113
vt 0.967800 0.000000
vt 0.978533 0.910694
vt 0.967800 0.910694
vt 0.000000 0.000000
vt 0.430267 0.910694
vt 0.000000 0.910694
vt 0.978533 0.000000
vt 0.989267 0.910694
vt 0.978533 0.910694
vt 0.430267 0.000000
vt 0.860535 0.910694
vt 1.000000 0.860535
vt 0.989267 0.430267
vt 1.000000 0.430267
vt 1.000000 0.430267
vt 0.989267 0.000000
vt 1.000000 0.000000
vt 0.860535 0.000000
vt 0.942587 0.000000
vt 0.000000 0.910694
vt 0.978533 0.000000
vt 0.989267 0.000000
vt 0.860535 0.000000
vt 0.989267 0.860535
vt 0.989267 0.430267
s 0
f 3/1/1 2/2/1 1/3/1
f 7/4/2 4/5/2 3/6/2
f 5/7/3 8/8/3 7/9/3
f 1/6/4 6/10/4 5/1/4
f 1/11/5 7/12/5 3/13/5
f 6/13/6 4/14/6 8/15/6
f 11/16/3 9/17/3 10/18/3
f 12/19/4 13/20/4 9/21/4
f 14/22/1 15/23/1 13/24/1
f 16/25/2 10/26/2 15/20/2
f 13/27/6 10/28/6 9/29/6
f 12/30/5 16/31/5 14/32/5
f 3/1/1 4/10/1 2/2/1
f 7/4/2 8/33/2 4/5/2
f 5/7/3 6/34/3 8/8/3
f 1/6/4 2/5/4 6/10/4
f 1/11/5 5/35/5 7/12/5
f 6/13/6 2/12/6 4/14/6
f 11/16/3 12/36/3 9/17/3
f 12/19/4 14/25/4 13/20/4
f 14/22/1 16/37/1 15/23/1
f 16/25/2 11/38/2 10/26/2
f 13/27/6 15/39/6 10/28/6
f 12/30/5 11/40/5 16/31/5
