# Blender v2.90.1 OBJ File: ''
# www.blender.org
mtllib wedge_main.mtl
o Cube_Cube.001
v 0.000000 -0.500000 0.500000
v 1.000000 -0.500000 0.500000
v 0.000000 0.500000 0.500000
v 0.000000 -0.500000 -0.500000
v 0.000000 0.500000 -0.500000
v 1.000000 -0.500000 -0.500000
vt 0.625000 1.000000
vt 0.625000 0.750000
vt 0.625000 0.250000
vt 0.375000 1.000000
vt 0.375000 0.250000
vt 0.375000 0.750000
vn 0.0000 -0.0000 1.0000
vn 0.0000 0.0000 -1.0000
vn 0.0000 -1.0000 -0.0000
vn 0.7071 0.7071 0.0000
usemtl None
s 1
f 1/1/1 2/2/1 3/3/1
f 4/4/2 5/5/2 6/6/2
f 6/6/3 2/2/3 1/1/3 4/4/3
f 5/5/4 3/3/4 2/2/4 6/6/4
