# Blender v2.81 (sub 16) OBJ File: ''
# www.blender.org
mtllib pole mid.mtl
o Cube_Cube.005
v 0.300000 -0.500000 -0.000000
v 0.259808 -0.500000 -0.150000
v 0.259808 0.500000 -0.150000
v 0.300000 0.500000 0.000000
v -0.300000 -0.500000 -0.000000
v -0.259808 -0.500000 0.150000
v -0.259808 0.500000 0.150000
v -0.300000 0.500000 0.000000
v 0.000000 -0.500000 0.300000
v 0.150000 -0.500000 0.259808
v 0.150000 0.500000 0.259808
v 0.000000 0.500000 0.300000
v 0.150000 -0.500000 -0.259808
v 0.000000 -0.500000 -0.300000
v 0.000000 0.500000 -0.300000
v 0.150000 0.500000 -0.259808
v -0.259808 -0.500000 -0.150000
v -0.259808 0.500000 -0.150000
v -0.150000 -0.500000 0.259808
v -0.150000 0.500000 0.259808
v 0.259808 -0.500000 0.150000
v 0.259808 0.500000 0.150000
v -0.150000 -0.500000 -0.259808
v -0.150000 0.500000 -0.259808
vt 0.833333 1.000000
vt 0.916667 1.000000
vt 0.916667 1.000000
vt 0.833333 1.000000
vt 0.250000 1.000000
vt 0.333333 1.000000
vt 0.333333 1.000000
vt 0.250000 1.000000
vt 0.500000 1.000000
vt 0.583333 1.000000
vt 0.583333 1.000000
vt 0.500000 1.000000
vt 0.750000 1.000000
vt 0.833333 1.000000
vt 0.833333 1.000000
vt 0.750000 1.000000
vt 0.166667 1.000000
vt 0.166667 1.000000
vt 0.416667 1.000000
vt 0.416667 1.000000
vt 0.666667 1.000000
vt 0.750000 1.000000
vt 0.750000 1.000000
vt 0.666667 1.000000
vt 0.083333 1.000000
vt 0.083333 1.000000
vt 1.000000 1.000000
vt 1.000000 1.000000
vt 0.000000 1.000000
vt 0.000000 1.000000
vn 1.0000 0.0000 -0.0000
vn 0.8660 0.0000 -0.5000
vn -1.0000 0.0000 -0.0000
vn -0.8660 -0.0000 0.5000
vn 0.0000 -0.0000 1.0000
vn 0.5000 -0.0000 0.8660
vn 0.5000 0.0000 -0.8660
vn 0.0000 0.0000 -1.0000
vn -0.8660 0.0000 -0.5000
vn -0.5000 -0.0000 0.8660
vn 0.8660 -0.0000 0.5000
vn -0.5000 0.0000 -0.8660
usemtl None.009
s 1
f 1/1/1 2/2/2 3/3/2 4/4/1
f 5/5/3 6/6/4 7/7/4 8/8/3
f 9/9/5 10/10/6 11/11/6 12/12/5
f 13/13/7 14/14/8 15/15/8 16/16/7
f 17/17/9 5/5/3 8/8/3 18/18/9
f 19/19/10 9/9/5 12/12/5 20/20/10
f 21/21/11 1/22/1 4/23/1 22/24/11
f 23/25/12 17/17/9 18/18/9 24/26/12
f 2/2/2 13/27/7 16/28/7 3/3/2
f 6/6/4 19/19/10 20/20/10 7/7/4
f 10/10/6 21/21/11 22/24/11 11/11/6
f 14/29/8 23/25/12 24/26/12 15/30/8
