# Blender v2.81 (sub 16) OBJ File: ''
# www.blender.org
mtllib pole tip.mtl
o Cube_Cube.006
v 0.300000 0.000000 0.000000
v 0.259808 0.000000 -0.150000
v 0.150000 0.000000 -0.259808
v 0.000000 0.000000 -0.300000
v -0.150000 0.000000 -0.259808
v -0.259808 0.000000 -0.150000
v -0.300000 0.000000 0.000000
v -0.259808 -0.000000 0.150000
v -0.150000 -0.000000 0.259808
v 0.000000 -0.000000 0.300000
v 0.150000 -0.000000 0.259808
v 0.259808 -0.000000 0.150000
v 0.000000 0.150000 -0.259808
v 0.129904 0.150000 -0.225000
v 0.000000 0.259808 -0.150000
v 0.000000 0.300000 0.000000
v 0.075000 0.259808 -0.129904
v 0.129904 0.259808 -0.075000
v 0.225000 0.150000 -0.129904
v 0.150000 0.259808 0.000000
v 0.259808 0.150000 0.000000
v 0.129904 0.259808 0.075000
v 0.225000 0.150000 0.129904
v 0.075000 0.259808 0.129904
v 0.129904 0.150000 0.225000
v 0.000000 0.259808 0.150000
v 0.000000 0.150000 0.259808
v -0.129904 0.150000 0.225000
v -0.075000 0.259808 0.129904
v -0.225000 0.150000 0.129904
v -0.129904 0.259808 0.075000
v -0.259808 0.150000 0.000000
v -0.150000 0.259808 0.000000
v -0.225000 0.150000 -0.129904
v -0.129904 0.259808 -0.075000
v -0.129904 0.150000 -0.225000
v -0.075000 0.259808 -0.129904
vt 0.490000 0.250000
vt 0.457846 0.370000
vt 0.370000 0.457846
vt 0.250000 0.490000
vt 0.130000 0.457846
vt 0.042154 0.370000
vt 0.010000 0.250000
vt 0.042154 0.130000
vt 0.130000 0.042154
vt 0.250000 0.010000
vt 0.370000 0.042154
vt 0.457846 0.130000
vt 0.750000 0.500000
vt 0.750000 0.666667
vt 0.666667 0.666667
vt 0.666667 0.500000
vt 0.750000 0.833333
vt 0.708333 1.000000
vt 0.666667 0.833333
vt 0.583333 0.833333
vt 0.583333 0.666667
vt 0.583333 0.500000
vt 0.625000 1.000000
vt 0.500000 0.833333
vt 0.500000 0.666667
vt 0.500000 0.500000
vt 0.541667 1.000000
vt 0.416667 0.833333
vt 0.416667 0.666667
vt 0.416667 0.500000
vt 0.458333 1.000000
vt 0.333333 0.833333
vt 0.333333 0.666667
vt 0.333333 0.500000
vt 0.375000 1.000000
vt 0.250000 0.833333
vt 0.250000 0.666667
vt 0.250000 0.500000
vt 0.291667 1.000000
vt 0.166667 0.666667
vt 0.166667 0.500000
vt 0.208333 1.000000
vt 0.166667 0.833333
vt 0.083333 0.666667
vt 0.083333 0.500000
vt 0.125000 1.000000
vt 0.083333 0.833333
vt 0.000000 0.666667
vt 0.000000 0.500000
vt 0.041667 1.000000
vt 0.000000 0.833333
vt 1.000000 0.500000
vt 1.000000 0.666667
vt 0.916667 0.666667
vt 0.916667 0.500000
vt 1.000000 0.833333
vt 0.958333 1.000000
vt 0.916667 0.833333
vt 0.833333 0.666667
vt 0.833333 0.500000
vt 0.875000 1.000000
vt 0.833333 0.833333
vt 0.791667 1.000000
vn -0.0000 1.0000 0.0000
vn 0.0000 0.2588 -0.9659
vn 0.0000 0.4823 -0.8760
vn 0.4380 0.4823 -0.7586
vn 0.4830 0.2588 -0.8365
vn 0.0000 0.8474 -0.5309
vn 0.2654 0.8474 -0.4598
vn 0.4598 0.8474 -0.2654
vn 0.7586 0.4823 -0.4380
vn 0.8365 0.2588 -0.4830
vn 0.5309 0.8474 0.0000
vn 0.8760 0.4823 0.0000
vn 0.9659 0.2588 0.0000
vn 0.4598 0.8474 0.2654
vn 0.7586 0.4823 0.4380
vn 0.8365 0.2588 0.4830
vn 0.2654 0.8474 0.4598
vn 0.4380 0.4823 0.7586
vn 0.4830 0.2588 0.8365
vn 0.0000 0.8474 0.5309
vn 0.0000 0.4823 0.8760
vn 0.0000 0.2588 0.9659
vn -0.4380 0.4823 0.7586
vn -0.4830 0.2588 0.8365
vn -0.2654 0.8474 0.4598
vn -0.7586 0.4823 0.4380
vn -0.8365 0.2588 0.4830
vn -0.4598 0.8474 0.2654
vn -0.8760 0.4823 0.0000
vn -0.9659 0.2588 0.0000
vn -0.5309 0.8474 0.0000
vn -0.7586 0.4823 -0.4380
vn -0.8365 0.2588 -0.4830
vn -0.4598 0.8474 -0.2654
vn -0.4380 0.4823 -0.7586
vn -0.4830 0.2588 -0.8365
vn -0.2654 0.8474 -0.4598
usemtl None.010
s 1
f 1/1/1 2/2/1 3/3/1 4/4/1 5/5/1 6/6/1 7/7/1 8/8/1 9/9/1 10/10/1 11/11/1 12/12/1
f 4/13/2 13/14/3 14/15/4 3/16/5
f 15/17/6 16/18/1 17/19/7
f 13/14/3 15/17/6 17/19/7 14/15/4
f 14/15/4 17/19/7 18/20/8 19/21/9
f 3/16/5 14/15/4 19/21/9 2/22/10
f 17/19/7 16/23/1 18/20/8
f 19/21/9 18/20/8 20/24/11 21/25/12
f 2/22/10 19/21/9 21/25/12 1/26/13
f 18/20/8 16/27/1 20/24/11
f 21/25/12 20/24/11 22/28/14 23/29/15
f 1/26/13 21/25/12 23/29/15 12/30/16
f 20/24/11 16/31/1 22/28/14
f 23/29/15 22/28/14 24/32/17 25/33/18
f 12/30/16 23/29/15 25/33/18 11/34/19
f 22/28/14 16/35/1 24/32/17
f 25/33/18 24/32/17 26/36/20 27/37/21
f 11/34/19 25/33/18 27/37/21 10/38/22
f 24/32/17 16/39/1 26/36/20
f 10/38/22 27/37/21 28/40/23 9/41/24
f 26/36/20 16/42/1 29/43/25
f 27/37/21 26/36/20 29/43/25 28/40/23
f 9/41/24 28/40/23 30/44/26 8/45/27
f 29/43/25 16/46/1 31/47/28
f 28/40/23 29/43/25 31/47/28 30/44/26
f 8/45/27 30/44/26 32/48/29 7/49/30
f 31/47/28 16/50/1 33/51/31
f 30/44/26 31/47/28 33/51/31 32/48/29
f 7/52/30 32/53/29 34/54/32 6/55/33
f 33/56/31 16/57/1 35/58/34
f 32/53/29 33/56/31 35/58/34 34/54/32
f 6/55/33 34/54/32 36/59/35 5/60/36
f 35/58/34 16/61/1 37/62/37
f 34/54/32 35/58/34 37/62/37 36/59/35
f 37/62/37 16/63/1 15/17/6
f 36/59/35 37/62/37 15/17/6 13/14/3
f 5/60/36 36/59/35 13/14/3 4/13/2
