# Blender 4.2.1 LTS
# www.blender.org
o close
v -3.601226 0.005710 1.308893
v -3.601226 7.043156 1.308893
v -3.601226 0.005710 -1.308893
v -3.601226 7.043156 -1.308893
v 0.266667 0.005710 1.800000
v 0.266667 7.166147 1.800000
v 0.266667 0.005710 -1.800000
v 0.266667 7.166147 -1.800000
vn 1.0000 -0.0000 -0.0000
vn 0.1260 -0.0000 0.9920
vn 0.1260 -0.0000 -0.9920
vn -0.0000 1.0000 -0.0000
vn 0.0318 -0.9995 -0.0000
vt 0.375000 0.250000
vt 0.625000 0.000000
vt 0.375000 0.000000
vt 0.375000 0.500000
vt 0.625000 0.250000
vt 0.375000 0.750000
vt 0.625000 1.000000
vt 0.625000 0.750000
vt 0.125000 0.750000
vt 0.125000 0.500000
vt 0.875000 0.500000
vt 0.625000 0.500000
vt 0.375000 1.000000
vt 0.875000 0.750000
s 0
f 3/1/1 2/2/1 1/3/1
f 7/4/2 4/5/2 3/1/2
f 5/6/3 2/7/3 6/8/3
f 1/9/4 7/4/4 3/10/4
f 6/8/5 4/11/5 8/12/5
f 3/1/1 4/5/1 2/2/1
f 7/4/2 8/12/2 4/5/2
f 5/6/3 1/13/3 2/7/3
f 1/9/4 5/6/4 7/4/4
f 6/8/5 2/14/5 4/11/5
