# Blender v2.90.1 OBJ File: ''
# www.blender.org
mtllib round_slope.mtl
o Cube_Cube.000
v 0.500000 -0.500000 0.500000
v 0.500000 -0.200000 0.500000
v -0.500000 -0.200000 0.500000
v -0.500000 -0.500000 0.500000
v -0.500000 -0.200000 -0.500000
v -0.500000 -0.500000 -0.500000
v 0.500000 -0.200000 -0.500000
v 0.500000 -0.500000 -0.500000
v -0.500000 0.500000 0.500000
v -0.500000 0.500000 -0.500000
v 0.277347 0.127617 0.500000
v -0.055986 0.360950 0.500000
v -0.055986 0.360950 -0.500000
v 0.277347 0.127617 -0.500000
vt 0.375000 0.000000
vt 0.625000 0.000000
vt 0.625000 0.250000
vt 0.375000 0.250000
vt 0.625000 0.500000
vt 0.375000 0.500000
vt 0.625000 0.750000
vt 0.375000 0.750000
vt 0.125000 0.500000
vt 0.125000 0.750000
vt 0.625000 0.250000
vt 0.625000 0.500000
vt 0.625000 0.083333
vt 0.625000 0.166667
vt 0.625000 0.583333
vt 0.625000 0.666667
vt 0.625000 1.000000
vt 0.375000 1.000000
vn 0.0000 -0.0000 1.0000
vn -1.0000 0.0000 0.0000
vn 0.0000 0.0000 -1.0000
vn 0.0000 -1.0000 -0.0000
vn 0.5774 -0.5773 -0.5774
vn 0.7291 0.2245 -0.6466
vn 0.7291 0.2243 0.6466
vn 0.5774 -0.5774 0.5773
vn 0.3256 0.6629 -0.6742
vn -0.4893 0.6660 -0.5630
vn -0.4893 0.6660 0.5630
vn 0.3262 0.6626 0.6742
vn 0.5294 0.5222 -0.6686
vn 0.5295 0.5221 0.6686
usemtl None.001
s 1
f 1/1/1 2/2/1 3/3/1 4/4/1
f 4/4/2 3/3/2 5/5/2 6/6/2
f 6/6/3 5/5/3 7/7/3 8/8/3
f 4/9/4 6/6/4 8/8/4 1/10/4
f 5/5/2 3/3/2 9/11/2 10/12/2
f 3/3/1 2/2/1 11/13/1 12/14/1 9/11/1
f 5/5/3 10/12/3 13/15/3 14/16/3 7/7/3
f 8/8/5 7/7/6 2/17/7 1/18/8
f 13/15/9 10/12/10 9/11/11 12/14/12
f 7/7/6 14/16/13 11/13/14 2/2/7
f 14/16/13 13/15/9 12/14/12 11/13/14
