# Blender 3.6.2
# www.blender.org
o Cube.032
v -0.875527 0.213910 0.364789
v -0.875527 0.692730 0.364789
v -0.875527 0.213910 -0.070034
v -0.875527 0.692730 -0.070034
v -0.366270 1.550269 -0.085252
v -0.366270 1.550269 0.380007
v -0.875527 1.550269 0.380006
v -0.875527 1.550269 -0.085252
v -1.290334 0.213910 0.364789
v -1.290334 0.213910 -0.070034
v -1.654960 0.692730 0.364788
v -1.654960 0.692730 -0.070034
v -1.290334 0.806183 0.364789
v -1.290334 0.806183 -0.070034
v -1.654960 0.806183 0.364788
v -1.654960 0.806183 -0.070034
v -1.286807 1.575926 0.368995
v -1.286807 1.575926 -0.074240
v -1.658487 1.575926 0.368995
v -1.658487 1.575926 -0.074240
v -1.290334 2.130754 0.364789
v -1.290334 2.130754 -0.070034
v -1.654960 2.130754 0.364788
v -1.654960 2.130754 -0.070034
v -0.366270 2.136856 -0.085252
v -0.366270 2.136856 0.380007
v -0.875527 2.136856 0.380006
v -0.875527 2.136856 -0.085252
v -1.290334 2.539380 0.364789
v -1.290334 2.539380 -0.070034
v -1.654960 2.539380 0.364788
v -1.654960 2.539380 -0.070034
v -0.366270 2.545482 -0.085252
v -0.366270 2.545482 0.380007
v -0.875527 2.545482 0.380006
v -0.875527 2.545482 -0.085252
v -1.290334 3.286997 0.364789
v -1.290334 3.286997 -0.070034
v -1.654960 3.286997 0.364788
v -1.654960 3.286997 -0.070034
v -0.366270 3.293099 -0.085252
v -0.366270 3.293099 0.380007
v -0.875527 3.293099 0.380006
v -0.875527 3.293099 -0.085252
v -1.654960 0.539868 0.364788
v -1.329001 0.213910 0.364788
v -1.646787 0.467336 0.364788
v -1.622680 0.398440 0.364788
v -1.583846 0.336636 0.364788
v -1.532233 0.285023 0.364788
v -1.470429 0.246190 0.364788
v -1.401534 0.222082 0.364788
v -1.329001 0.213910 -0.070034
v -1.654960 0.539868 -0.070034
v -1.401534 0.222082 -0.070034
v -1.470429 0.246190 -0.070034
v -1.532233 0.285023 -0.070034
v -1.583846 0.336636 -0.070034
v -1.622680 0.398440 -0.070034
v -1.646787 0.467336 -0.070034
v -1.252181 0.692730 0.364789
v -1.290334 0.730884 0.364789
v -1.328488 0.692730 0.364788
v -1.290334 0.654577 0.364789
v -1.263971 0.694598 0.364789
v -1.274607 0.700017 0.364789
v -1.283048 0.708458 0.364789
v -1.288467 0.719094 0.364789
v -1.290334 0.730884 -0.070034
v -1.252181 0.692730 -0.070034
v -1.290334 0.654577 -0.070034
v -1.328488 0.692730 -0.070034
v -1.288467 0.719094 -0.070034
v -1.283048 0.708458 -0.070034
v -1.274607 0.700017 -0.070034
v -1.263971 0.694598 -0.070034
v -1.281131 0.818424 0.375764
v -1.664163 0.818424 0.375764
v -1.664163 0.818424 -0.081009
v -1.281131 0.818424 -0.081009
v -1.290334 0.831256 0.364789
v -1.654960 0.831256 0.364788
v -1.654960 0.831256 -0.070034
v -1.290334 0.831256 -0.070034
v -1.290334 1.566017 0.364789
v -1.654960 1.566017 0.364788
v -1.654960 1.566017 -0.070034
v -1.290334 1.566017 -0.070034
v -1.654960 1.589122 -0.070034
v -1.290334 1.589122 -0.070034
v -1.290334 1.589122 0.364789
v -1.654960 1.589122 0.364788
v -0.358215 1.563146 -0.092611
v -0.358215 1.563146 0.387366
v -0.883582 1.563146 -0.092611
v -0.883582 1.563146 0.387366
v -0.366270 1.571019 -0.085252
v -0.875527 1.571019 -0.085252
v -0.366270 1.571019 0.380007
v -0.875527 1.571019 0.380006
v -0.356741 2.125157 -0.093958
v -0.885057 2.125157 -0.093958
v -0.356741 2.125157 0.388713
v -0.885057 2.125157 0.388713
v -0.366270 2.114154 0.380007
v -0.875527 2.114154 0.380006
v -0.366270 2.114154 -0.085252
v -0.875527 2.114154 -0.085252
v -0.883735 2.562950 0.387505
v -0.883735 2.562950 -0.092750
v -0.358063 2.562950 -0.092750
v -0.358063 2.562950 0.387505
v -0.875527 2.582490 0.380006
v -0.366270 2.582490 -0.085252
v -0.875527 2.582490 -0.085252
v -0.366270 2.582490 0.380007
v -1.658304 2.554225 -0.074023
v -1.286990 2.554225 -0.074023
v -1.286990 2.554225 0.368777
v -1.658304 2.554225 0.368777
v -1.654960 2.573892 -0.070034
v -1.290334 2.573892 -0.070034
v -1.290334 2.573892 0.364789
v -1.654960 2.573892 0.364788
v -1.663873 2.115539 -0.080664
v -1.281421 2.115539 -0.080664
v -1.281421 2.115539 0.375418
v -1.663873 2.115539 0.375418
v -1.290334 2.103784 -0.070034
v -1.290334 2.103784 0.364789
v -1.654960 2.103784 0.364788
v -1.654960 2.103784 -0.070034
v -0.366270 1.571019 -0.085252
v -0.366270 1.571019 0.380007
v -0.366270 2.114154 0.380007
v -0.366270 2.114154 -0.085252
vn -0.0000 -0.0000 -1.0000
vn 0.7753 0.6315 -0.0000
vn 0.9969 0.0784 -0.0000
vn 1.0000 -0.0000 -0.0000
vn -0.0000 -1.0000 -0.0000
vn -0.0561 -0.9984 -0.0000
vn -1.0000 -0.0000 -0.0000
vn -0.9984 -0.0561 -0.0000
vn -0.0000 -0.2176 0.9760
vn -0.0000 -0.3908 0.9205
vn -0.0000 -0.0000 1.0000
vn -0.0000 1.0000 -0.0000
vn 0.0785 0.9969 -0.0000
vn -0.0000 0.5727 -0.8198
vn -0.0000 0.5727 -0.8197
vn -0.9821 -0.1885 -0.0000
vn -0.9421 -0.3353 -0.0000
vn -0.0000 -0.2176 -0.9760
vn -0.0000 -0.3907 -0.9205
vn 0.9821 -0.1885 -0.0000
vn 0.9421 -0.3354 -0.0000
vn -0.0000 -0.2244 -0.9745
vn 0.8628 0.5055 -0.0000
vn -0.0000 0.5727 0.8198
vn -0.8629 0.5055 -0.0000
vn -0.8628 0.5055 -0.0000
vn -0.0000 -0.1392 -0.9903
vn -0.0000 0.5970 -0.8022
vn -0.0000 0.5970 0.8022
vn -0.7753 0.6316 -0.0000
vn 0.9762 0.2168 -0.0000
vn -0.9762 0.2168 -0.0000
vn 0.9929 -0.1189 -0.0000
vn -0.0000 -0.2244 0.9745
vn -0.0000 -0.1392 0.9903
vn -0.9929 -0.1189 -0.0000
vn -0.9706 -0.2408 -0.0000
vn 0.9706 -0.2408 -0.0000
vn -0.0000 0.1049 -0.9945
vn 0.9960 0.0891 -0.0000
vn -0.0000 0.2015 -0.9795
vn -0.0000 0.2015 0.9795
vn -0.0000 0.1049 0.9945
vn -0.9960 0.0891 -0.0000
vn -0.2225 -0.9749 -0.0000
vn -0.4339 -0.9010 -0.0000
vn -0.6235 -0.7818 -0.0000
vn -0.7818 -0.6235 -0.0000
vn -0.9010 -0.4339 -0.0000
vn -0.9749 -0.2225 -0.0000
vn 0.3090 0.9511 -0.0000
vn 0.5878 0.8090 -0.0000
vn 0.8090 0.5878 -0.0000
vn 0.9511 0.3090 -0.0000
vn 0.7993 -0.6009 -0.0000
vn -0.0000 -0.6676 -0.7446
vn -0.7993 -0.6009 -0.0000
vn -0.0000 -0.6676 0.7446
vn -0.0000 -0.6676 0.7445
vn 0.8126 0.5828 -0.0000
vn -0.0000 0.6500 -0.7600
vn -0.8126 0.5828 -0.0000
vn -0.0000 0.6500 0.7599
vn -0.0000 0.6500 0.7600
vn -0.9661 0.2582 -0.0000
vn -0.9899 0.1415 -0.0000
vn -0.0000 0.3037 0.9528
vn -0.0000 0.1650 0.9863
vn 0.9661 0.2582 -0.0000
vn 0.9899 0.1415 -0.0000
vn -0.0000 0.3037 -0.9528
vn -0.0000 0.1650 -0.9863
vn -0.8478 -0.5303 -0.0000
vn -0.0000 -0.4962 0.8682
vn -0.0000 -0.4962 -0.8682
vn 0.8478 -0.5303 -0.0000
vn -0.6990 0.7151 -0.0000
vn -0.0000 0.6829 0.7305
vn -0.0000 0.6828 -0.7306
vn -0.0000 0.6829 -0.7305
vn 0.6990 0.7151 -0.0000
vn -0.7559 -0.6547 -0.0000
vn -0.0000 -0.6205 0.7842
vn -0.0000 -0.6205 -0.7842
vn 0.7559 -0.6547 -0.0000
vn -0.0000 -0.3944 0.9189
vn -0.0000 -0.3945 0.9189
vn -0.0000 -0.3944 -0.9189
vn -0.9051 -0.4253 -0.0000
vn 0.9051 -0.4252 -0.0000
vn -0.0000 0.3583 0.9336
vn -0.0000 0.3583 -0.9336
vn -0.9220 0.3873 -0.0000
vn 0.9220 0.3872 -0.0000
vn -0.9998 -0.0222 -0.0000
vn -0.0000 -0.0270 0.9996
vn 0.9998 -0.0222 -0.0000
vn -0.0000 -0.0270 -0.9996
vn -0.7968 -0.6042 -0.0000
vn -0.0000 -0.6707 0.7417
vn 0.7968 -0.6042 -0.0000
vn -0.0000 -0.6707 -0.7417
vn -0.0000 -0.3907 0.9205
vn 0.9421 -0.3353 -0.0000
vn -0.0000 -0.3945 -0.9189
vn -0.0000 0.3582 -0.9336
vt 0.977585 0.427887
vt 1.000000 0.550352
vt 0.000000 0.744027
vt 0.625000 0.066336
vt 0.625000 0.250000
vt 0.617529 0.677656
vt 0.617529 0.506007
vt 0.104637 0.808446
vt 1.000000 1.000000
vt 0.000000 1.000000
vt 1.000000 0.000000
vt 0.000000 0.000000
vt 1.000000 0.920317
vt 1.000000 0.808446
vt 0.000000 0.808446
vt 0.000000 0.550352
vt 0.598799 0.506007
vt 0.875000 0.683664
vt 0.625000 0.683664
vt 0.625000 0.500000
vt 0.980976 0.069955
vt 0.010851 0.973511
vt 0.991219 0.063695
vt 0.001337 0.976328
vt 0.000000 0.013798
vt 1.000000 0.013798
vt 0.000000 0.054502
vt 1.000000 0.054502
vt 0.000000 0.120069
vt 1.000000 0.120069
vt 0.000000 0.207213
vt 1.000000 0.207213
vt 0.000000 0.311563
vt 1.000000 0.311563
vt 0.000000 0.427887
vt 1.000000 0.427887
vt 0.383808 0.506007
vt 0.382471 0.506007
vt 0.617530 0.506007
vt 0.967022 0.110634
vt 0.018766 0.928839
vt 0.976387 0.098403
vt 0.013453 0.942807
vt 0.106049 0.000000
vt 0.304970 0.013799
vt 0.493920 0.054502
vt 0.663417 0.120070
vt 0.804964 0.207213
vt 0.911470 0.311563
vt 0.000000 0.872865
vt 0.908020 1.000000
vt 0.875000 0.500000
vt 0.598799 0.677656
vt 0.542487 0.506007
vt 0.506880 0.506007
vt 0.473059 0.506007
vt 0.442719 0.506007
vt 0.394108 0.506007
vt 0.387753 0.506007
s 1
f 60/1/1 54/2/1 71/3/1
f 101/4/2 26/5/2 103/5/2
f 69/6/3 13/7/4 62/7/3
f 72/8/1 16/9/1 14/10/1
f 1/11/5 10/12/5 3/12/5
f 10/12/5 46/11/6 53/12/6
f 3/12/1 10/11/1 71/13/1
f 11/14/7 16/10/7 12/15/7
f 11/14/7 54/16/8 45/2/8
f 85/7/9 19/7/10 86/7/9
f 2/7/11 61/7/11 64/17/11
f 4/6/12 61/7/13 2/7/12
f 125/6/14 22/6/15 126/6/15
f 86/7/16 20/6/17 87/6/16
f 88/6/18 20/6/19 18/6/19
f 88/6/20 17/7/21 85/7/20
f 28/11/1 33/10/22 25/12/1
f 127/7/23 22/6/23 21/7/23
f 128/7/24 21/7/24 23/7/24
f 128/7/25 24/6/26 125/6/26
f 24/11/1 30/10/27 22/12/1
f 101/18/28 28/19/28 25/18/28
f 103/5/29 27/20/29 104/20/29
f 102/19/30 27/20/30 28/19/30
f 114/12/31 42/9/4 116/11/31
f 113/11/32 44/10/7 115/12/32
f 22/12/4 29/9/33 21/11/4
f 26/5/11 35/20/34 27/20/11
f 21/7/11 31/7/35 23/7/11
f 23/21/7 32/22/36 24/12/7
f 27/23/7 36/24/37 28/12/7
f 25/12/4 34/9/38 26/11/4
f 38/6/12 39/7/12 37/7/12
f 43/20/12 41/18/12 44/19/12
f 121/11/39 38/10/1 122/12/39
f 122/12/40 37/9/4 123/11/40
f 115/11/41 41/10/1 114/12/41
f 116/5/42 43/20/11 113/20/42
f 123/7/43 39/7/11 124/7/43
f 124/11/44 40/10/7 121/12/44
f 46/11/6 55/25/45 53/12/6
f 52/26/45 56/27/46 55/25/45
f 51/28/46 57/29/47 56/27/46
f 50/30/47 58/31/48 57/29/47
f 49/32/48 59/33/49 58/31/48
f 48/34/49 60/35/50 59/33/49
f 47/36/50 54/16/8 60/35/50
f 63/7/11 13/7/11 15/7/11
f 64/17/11 66/7/11 67/7/11
f 72/6/1 74/6/1 75/6/1
f 70/6/13 65/7/51 61/7/13
f 76/6/51 66/7/52 65/7/51
f 75/6/52 67/7/53 66/7/52
f 74/6/53 68/7/54 67/7/53
f 73/6/54 62/7/3 68/7/54
f 52/37/11 46/38/11 64/17/11
f 14/6/55 77/7/55 13/7/55
f 16/6/56 80/6/56 14/6/56
f 15/7/57 79/6/57 16/6/57
f 13/7/58 78/7/59 15/7/59
f 80/6/60 81/39/60 77/7/60
f 79/6/61 84/6/61 80/6/61
f 79/6/62 82/7/62 83/6/62
f 78/7/63 81/39/64 82/7/63
f 84/6/4 85/7/20 81/39/4
f 83/11/1 88/10/18 84/12/1
f 82/40/7 87/41/16 83/12/7
f 81/39/11 86/7/9 82/7/11
f 20/6/65 92/7/66 89/6/66
f 19/7/67 91/7/68 92/7/68
f 18/6/69 91/7/70 17/7/69
f 20/6/71 90/6/72 18/6/71
f 7/20/73 95/19/73 8/19/73
f 6/5/74 96/20/74 7/20/74
f 5/18/75 95/19/75 93/18/75
f 5/4/76 94/5/76 6/5/76
f 95/19/77 100/20/77 98/19/77
f 96/20/78 99/5/78 100/20/78
f 95/19/79 97/18/80 93/18/80
f 93/4/81 99/5/81 94/5/81
f 106/20/82 102/19/82 108/19/82
f 106/20/83 103/5/83 104/20/83
f 108/19/84 101/18/84 107/18/84
f 107/4/85 103/5/85 105/5/85
f 98/11/1 107/10/1 97/12/1
f 99/5/11 106/20/11 100/20/11
f 100/11/7 108/10/7 98/12/7
f 35/20/34 112/5/86 109/20/87
f 36/19/22 111/18/88 33/18/22
f 35/20/37 110/19/89 36/19/37
f 33/4/38 112/5/90 34/5/38
f 112/5/91 113/20/42 109/20/91
f 111/18/92 115/19/41 114/18/41
f 110/19/93 113/20/32 115/19/32
f 111/4/94 116/5/31 112/5/94
f 31/7/36 117/6/95 32/6/36
f 29/7/35 120/7/96 31/7/35
f 30/6/33 119/7/97 29/7/33
f 32/6/27 118/6/98 30/6/27
f 120/7/95 121/6/44 117/6/95
f 120/7/96 123/7/43 124/7/43
f 119/7/97 122/6/40 123/7/40
f 117/6/98 122/6/39 118/6/98
f 131/7/99 125/6/99 132/6/99
f 130/7/100 128/7/100 131/7/100
f 129/6/101 127/7/101 130/7/101
f 129/6/102 125/6/102 126/6/102
f 89/11/72 129/10/1 90/12/72
f 90/12/70 130/9/4 91/11/70
f 91/7/68 131/7/11 92/7/68
f 92/42/66 132/43/7 89/12/66
f 133/12/4 135/9/4 134/11/4
f 12/14/1 72/8/1 54/2/1
f 72/8/1 71/3/1 54/2/1
f 71/3/1 10/12/1 53/44/1
f 53/44/1 55/45/1 71/3/1
f 55/45/1 56/46/1 71/3/1
f 56/46/1 57/47/1 71/3/1
f 57/47/1 58/48/1 71/3/1
f 58/48/1 59/49/1 71/3/1
f 59/49/1 60/1/1 71/3/1
f 101/4/2 25/4/2 26/5/2
f 69/6/3 14/6/4 13/7/4
f 14/10/1 69/50/1 72/8/1
f 72/8/1 12/14/1 16/9/1
f 1/11/5 9/11/5 10/12/5
f 10/12/5 9/11/5 46/11/6
f 70/51/1 4/10/1 71/13/1
f 4/10/1 3/12/1 71/13/1
f 11/14/7 15/9/7 16/10/7
f 11/14/7 12/15/7 54/16/8
f 85/7/9 17/7/103 19/7/10
f 9/38/11 1/38/11 64/17/11
f 1/38/11 2/7/11 64/17/11
f 4/6/12 70/6/13 61/7/13
f 125/6/14 24/6/14 22/6/15
f 86/7/16 19/7/17 20/6/17
f 88/6/18 87/6/18 20/6/19
f 88/6/20 18/6/104 17/7/21
f 28/11/1 36/9/22 33/10/22
f 127/7/23 126/6/23 22/6/23
f 128/7/24 127/7/24 21/7/24
f 128/7/25 23/7/25 24/6/26
f 24/11/1 32/9/27 30/10/27
f 101/18/28 102/19/28 28/19/28
f 103/5/29 26/5/29 27/20/29
f 102/19/30 104/20/30 27/20/30
f 114/12/31 41/10/4 42/9/4
f 113/11/32 43/9/7 44/10/7
f 22/12/4 30/10/33 29/9/33
f 26/5/11 34/5/34 35/20/34
f 21/7/11 29/7/35 31/7/35
f 23/21/7 31/9/36 32/22/36
f 27/23/7 35/9/37 36/24/37
f 25/12/4 33/10/38 34/9/38
f 38/6/12 40/6/12 39/7/12
f 43/20/12 42/52/12 41/18/12
f 121/11/39 40/9/1 38/10/1
f 122/12/40 38/10/4 37/9/4
f 115/11/41 44/9/1 41/10/1
f 116/5/42 42/5/11 43/20/11
f 123/7/43 37/7/11 39/7/11
f 124/11/44 39/9/7 40/10/7
f 46/11/6 52/26/45 55/25/45
f 52/26/45 51/28/46 56/27/46
f 51/28/46 50/30/47 57/29/47
f 50/30/47 49/32/48 58/31/48
f 49/32/48 48/34/49 59/33/49
f 48/34/49 47/36/50 60/35/50
f 47/36/50 45/2/8 54/16/8
f 15/7/11 11/7/11 63/7/11
f 63/7/11 62/7/11 13/7/11
f 64/17/11 61/7/11 65/7/11
f 64/17/11 65/7/11 66/7/11
f 62/7/11 63/7/11 68/7/11
f 63/7/11 64/17/11 67/7/11
f 68/7/11 63/7/11 67/7/11
f 72/6/1 69/6/1 73/6/1
f 72/6/1 73/6/1 74/6/1
f 70/6/1 71/53/1 76/6/1
f 71/53/1 72/6/1 75/6/1
f 76/6/1 71/53/1 75/6/1
f 70/6/13 76/6/51 65/7/51
f 76/6/51 75/6/52 66/7/52
f 75/6/52 74/6/53 67/7/53
f 74/6/53 73/6/54 68/7/54
f 73/6/54 69/6/3 62/7/3
f 46/38/11 9/38/11 64/17/11
f 64/17/11 63/7/11 45/54/11
f 63/7/11 11/7/11 45/54/11
f 45/54/11 47/55/11 64/17/11
f 47/55/11 48/56/11 64/17/11
f 48/56/11 49/57/11 64/17/11
f 49/57/11 50/58/11 64/17/11
f 50/58/11 51/59/11 64/17/11
f 51/59/11 52/37/11 64/17/11
f 14/6/55 80/6/55 77/7/55
f 16/6/56 79/6/56 80/6/56
f 15/7/57 78/7/57 79/6/57
f 13/7/58 77/7/58 78/7/59
f 80/6/60 84/6/60 81/39/60
f 79/6/61 83/6/61 84/6/61
f 79/6/62 78/7/62 82/7/62
f 78/7/63 77/7/64 81/39/64
f 84/6/4 88/6/20 85/7/20
f 83/11/1 87/9/18 88/10/18
f 82/40/7 86/9/16 87/41/16
f 81/39/11 85/7/9 86/7/9
f 20/6/65 19/7/65 92/7/66
f 19/7/67 17/7/67 91/7/68
f 18/6/69 90/6/70 91/7/70
f 20/6/71 89/6/72 90/6/72
f 7/20/73 96/20/73 95/19/73
f 6/5/74 94/5/74 96/20/74
f 5/18/75 8/19/75 95/19/75
f 5/4/76 93/4/76 94/5/76
f 95/19/77 96/20/77 100/20/77
f 96/20/78 94/5/78 99/5/78
f 95/19/79 98/19/79 97/18/80
f 93/4/81 97/4/81 99/5/81
f 106/20/82 104/20/82 102/19/82
f 106/20/83 105/5/83 103/5/83
f 108/19/84 102/19/84 101/18/84
f 107/4/85 101/4/85 103/5/85
f 98/11/1 108/9/1 107/10/1
f 99/5/11 105/5/11 106/20/11
f 100/11/7 106/9/7 108/10/7
f 35/20/34 34/5/34 112/5/86
f 36/19/22 110/19/105 111/18/88
f 35/20/37 109/20/89 110/19/89
f 33/4/38 111/4/90 112/5/90
f 112/5/91 116/5/42 113/20/42
f 111/18/92 110/19/106 115/19/41
f 110/19/93 109/20/93 113/20/32
f 111/4/94 114/4/31 116/5/31
f 31/7/36 120/7/95 117/6/95
f 29/7/35 119/7/96 120/7/96
f 30/6/33 118/6/97 119/7/97
f 32/6/27 117/6/98 118/6/98
f 120/7/95 124/7/44 121/6/44
f 120/7/96 119/7/96 123/7/43
f 119/7/97 118/6/97 122/6/40
f 117/6/98 121/6/39 122/6/39
f 131/7/99 128/7/99 125/6/99
f 130/7/100 127/7/100 128/7/100
f 129/6/101 126/6/101 127/7/101
f 129/6/102 132/6/102 125/6/102
f 89/11/72 132/9/1 129/10/1
f 90/12/70 129/10/4 130/9/4
f 91/7/68 130/7/11 131/7/11
f 92/42/66 131/9/7 132/43/7
f 133/12/4 136/10/4 135/9/4
