# Blender 3.6.2
# www.blender.org
o Cylinder
v 0.019444 -7.191854 -3.097753
v -0.000000 7.208304 -1.899655
v 1.186186 -7.191696 -2.863707
v 0.726966 7.208304 -1.755052
v 2.191787 -7.191696 -2.191787
v 1.343259 7.208304 -1.343259
v 2.863707 -7.191696 -1.186186
v 1.755052 7.208304 -0.726966
v 3.099655 -7.191696 0.000000
v 1.899655 7.208304 0.000000
v 2.863707 -7.191696 1.186186
v 1.755052 7.208304 0.726966
v 2.191787 -7.191696 2.191787
v 1.343259 7.208304 1.343259
v 1.186186 -7.191696 2.863707
v 0.726966 7.208304 1.755052
v -0.000000 -7.191696 3.099655
v -0.000000 7.208304 1.899655
v -1.186186 -7.191696 2.863707
v -0.726966 7.208304 1.755052
v -2.191787 -7.191696 2.191787
v -1.343259 7.208304 1.343259
v -2.863707 -7.191696 1.186186
v -1.755052 7.208304 0.726966
v -3.097753 -7.191854 0.019444
v -1.899655 7.208304 0.000000
v -1.755052 7.208304 -0.726966
v -1.343259 7.208304 -1.343259
v -0.726966 7.208304 -1.755052
v 0.006684 -3.961880 -2.830279
v 1.083186 -3.961862 -2.615042
v 2.001467 -3.961862 -2.001467
v 2.615042 -3.961862 -1.083186
v 2.830502 -3.961862 0.000000
v 2.615042 -3.961862 1.083186
v 2.001467 -3.961862 2.001467
v 1.083186 -3.961862 2.615042
v -0.000000 -3.961862 2.830502
v -1.083186 -3.961862 2.615042
v -2.001467 -3.961862 2.001467
v -2.615043 -3.961862 1.083186
v -2.830279 -3.961880 0.006684
v -2.615043 -3.961862 -1.083186
v -2.001467 -3.961862 -2.001467
v -1.083186 -3.961862 -2.615042
v -0.000000 -7.200000 -3.000000
v -0.000000 7.200000 -1.800000
v 1.148050 -7.200000 -2.771638
v 0.688830 7.200000 -1.662983
v 2.121320 -7.200000 -2.121320
v 1.272792 7.200000 -1.272792
v 2.771638 -7.200000 -1.148050
v 1.662983 7.200000 -0.688830
v 3.000000 -7.200000 0.000000
v 1.800000 7.200000 0.000000
v 2.771638 -7.200000 1.148050
v 1.662983 7.200000 0.688830
v 2.121320 -7.200000 2.121320
v 1.272792 7.200000 1.272792
v 1.148050 -7.200000 2.771638
v 0.688830 7.200000 1.662983
v -0.000000 -7.200000 3.000000
v -0.000000 7.200000 1.800000
v -1.148050 -7.200000 2.771638
v -0.688830 7.200000 1.662983
v -2.121320 -7.200000 2.121320
v -1.272792 7.200000 1.272792
v -2.771638 -7.200000 1.148050
v -1.662983 7.200000 0.688830
v -3.000000 -7.200000 0.000000
v -1.800000 7.200000 0.000000
v -1.662983 7.200000 -0.688830
v -1.272792 7.200000 -1.272792
v -0.688830 7.200000 -1.662983
v -0.000000 -3.970166 -2.730847
v 1.045050 -3.970166 -2.522974
v 1.931000 -3.970166 -1.931000
v 2.522974 -3.970166 -1.045050
v 2.730847 -3.970166 0.000000
v 2.522974 -3.970166 1.045050
v 1.931000 -3.970166 1.931000
v 1.045050 -3.970166 2.522974
v -0.000000 -3.970166 2.730847
v -1.045050 -3.970166 2.522974
v -1.931000 -3.970166 1.931000
v -2.522974 -3.970166 1.045050
v -2.730847 -3.970166 0.000000
v -2.522974 -3.970166 -1.045050
v -1.931000 -3.970166 -1.931000
v -1.045050 -3.970166 -2.522974
vn 0.0679 0.0829 -0.9942
vn 0.3814 0.0831 -0.9207
vn 0.3818 0.0831 -0.9205
vn 0.7047 0.0830 -0.7047
vn 0.9207 0.0830 -0.3814
vn 0.9965 0.0830 -0.0000
vn 0.9207 0.0830 0.3814
vn 0.7047 0.0830 0.7047
vn 0.3814 0.0830 0.9207
vn -0.0000 0.0830 0.9965
vn -0.3814 0.0830 0.9207
vn -0.7047 0.0830 0.7047
vn -0.9205 0.0831 0.3818
vn -0.9207 0.0831 0.3814
vn -0.9942 0.0829 0.0679
vn -0.9965 0.0831 -0.0000
vn -0.9209 0.0830 -0.3808
vn -0.9207 0.0830 -0.3814
vn -0.7047 0.0830 -0.7047
vn -0.3808 0.0830 -0.9209
vn -0.0000 0.0831 -0.9965
vn -0.9772 0.0815 0.1959
vn -0.9204 0.0830 0.3821
vn 0.3821 0.0830 -0.9204
vn 0.1959 0.0815 -0.9772
vn -0.3814 -0.0830 0.9207
vn -0.0000 -0.0830 0.9965
vn -0.0668 -0.0829 0.9943
vn -0.7047 -0.0830 0.7047
vn -0.9207 -0.0830 0.3814
vn -0.9965 -0.0830 -0.0000
vn -0.9207 -0.0830 -0.3814
vn -0.7047 -0.0830 -0.7047
vn -0.3814 -0.0830 -0.9207
vn -0.0000 -0.0830 -0.9965
vn 0.3814 -0.0830 -0.9207
vn 0.7047 -0.0830 -0.7047
vn 0.9207 -0.0830 -0.3814
vn 0.9943 -0.0829 -0.0668
vn 0.9207 -0.0830 0.3814
vn 0.9965 -0.0830 -0.0000
vn 0.7047 -0.0830 0.7047
vn 0.3814 -0.0830 0.9207
vn 0.9775 -0.0815 -0.1944
vn -0.1944 -0.0815 0.9775
vn 0.0159 -0.9967 -0.0801
vn 0.0319 -0.9966 -0.0766
vn 0.0159 -0.9967 -0.0799
vn -0.0000 0.9965 0.0830
vn -0.0318 0.9965 0.0767
vn 0.0587 -0.9965 -0.0587
vn 0.0319 -0.9965 -0.0767
vn -0.0587 0.9965 0.0587
vn 0.0767 -0.9965 -0.0318
vn -0.0767 0.9965 0.0318
vn 0.0830 -0.9965 -0.0000
vn -0.0830 0.9965 -0.0000
vn 0.0767 -0.9965 0.0318
vn -0.0767 0.9965 -0.0318
vn 0.0587 -0.9965 0.0587
vn -0.0587 0.9965 -0.0587
vn 0.0318 -0.9965 0.0767
vn -0.0318 0.9965 -0.0767
vn -0.0000 -0.9965 0.0830
vn -0.0000 0.9965 -0.0830
vn -0.0318 -0.9965 0.0767
vn 0.0318 0.9965 -0.0767
vn -0.0587 -0.9965 0.0587
vn 0.0587 0.9965 -0.0587
vn -0.0766 -0.9966 0.0319
vn 0.0767 0.9965 -0.0318
vn -0.0801 -0.9967 0.0159
vn -0.0767 -0.9965 0.0319
vn 0.0830 0.9965 -0.0000
vn -0.0691 0.0057 -0.9976
vn -0.1916 0.0121 -0.9814
vn -0.1941 0.0122 -0.9809
vn 0.0767 0.9965 0.0318
vn 0.0587 0.9965 0.0587
vn 0.0318 0.9965 0.0767
vn -0.9976 0.0057 -0.0691
vn -0.9814 0.0121 -0.1916
vn -0.9978 0.0056 -0.0666
vn -0.0318 -0.9965 -0.0768
vn -0.0166 -0.9963 -0.0841
vn -0.0318 -0.9965 -0.0767
vn -0.0587 -0.9965 -0.0587
vn -0.0767 -0.9965 -0.0318
vn -0.0768 -0.9965 -0.0318
vn -0.0841 -0.9963 -0.0166
vn -0.3814 0.0830 -0.9207
vn -0.0799 -0.9967 0.0159
vn -0.0666 0.0056 -0.9978
vn -0.9809 0.0122 -0.1941
vt 1.000000 0.612147
vt 0.937500 1.000000
vt 0.937500 0.612147
vt 0.875000 0.612147
vt 0.875000 1.000000
vt 0.812500 0.612147
vt 0.812500 1.000000
vt 0.750000 0.612147
vt 0.750000 1.000000
vt 0.687500 0.612147
vt 0.687500 1.000000
vt 0.625000 0.612147
vt 0.625000 1.000000
vt 0.562500 0.612147
vt 0.562500 1.000000
vt 0.500000 0.612147
vt 0.500000 1.000000
vt 0.437500 0.612147
vt 0.437500 1.000000
vt 0.375000 0.612147
vt 0.375000 1.000000
vt 0.312500 0.612147
vt 0.312500 1.000000
vt 0.250000 0.612147
vt 0.250000 1.000000
vt 0.187500 0.612147
vt 0.187500 1.000000
vt 0.125000 0.612147
vt 0.125000 1.000000
vt 0.062500 0.612147
vt 0.000000 1.000000
vt 0.000000 0.612147
vt 0.250000 0.500000
vt 0.312500 0.500000
vt 0.375000 0.500000
vt 0.437500 0.500000
vt 0.500000 0.500000
vt 0.562500 0.500000
vt 0.625000 0.500000
vt 0.687500 0.500000
vt 0.750000 0.500000
vt 0.812500 0.500000
vt 0.875000 0.500000
vt 0.937500 0.500000
vt 1.000000 0.500000
vt 1.000000 1.000000
vt 0.062500 1.000000
s 1
f 30/1/1 4/2/2 31/3/3
f 4/2/2 32/4/4 31/3/3
f 6/5/4 33/6/5 32/4/4
f 8/7/5 34/8/6 33/6/5
f 10/9/6 35/10/7 34/8/6
f 12/11/7 36/12/8 35/10/7
f 14/13/8 37/14/9 36/12/8
f 16/15/9 38/16/10 37/14/9
f 18/17/10 39/18/11 38/16/10
f 20/19/11 40/20/12 39/18/11
f 22/21/12 41/22/13 40/20/12
f 24/23/14 42/24/15 41/22/13
f 26/25/16 43/26/17 42/24/15
f 27/27/18 44/28/19 43/26/17
f 28/29/19 45/30/20 44/28/19
f 45/30/20 2/31/21 30/32/1
f 41/22/13 25/33/22 23/34/23
f 40/20/12 23/34/23 21/35/12
f 39/18/11 21/35/12 19/36/11
f 38/16/10 19/36/11 17/37/10
f 37/14/9 17/37/10 15/38/9
f 36/12/8 15/38/9 13/39/8
f 35/10/7 13/39/8 11/40/7
f 34/8/6 11/40/7 9/41/6
f 33/6/5 9/41/6 7/42/5
f 32/4/4 7/42/5 5/43/4
f 31/3/3 5/43/4 3/44/24
f 1/45/25 31/3/3 3/44/24
f 76/3/26 47/46/27 75/1/28
f 77/4/29 49/2/26 76/3/26
f 78/6/30 51/5/29 77/4/29
f 79/8/31 53/7/30 78/6/30
f 80/10/32 55/9/31 79/8/31
f 81/12/33 57/11/32 80/10/32
f 82/14/34 59/13/33 81/12/33
f 83/16/35 61/15/34 82/14/34
f 84/18/36 63/17/35 83/16/35
f 85/20/37 65/19/36 84/18/36
f 86/22/38 67/21/37 85/20/37
f 87/24/39 69/23/38 86/22/38
f 88/26/40 71/25/41 87/24/39
f 89/28/42 72/27/40 88/26/40
f 90/30/43 73/29/42 89/28/42
f 75/32/28 74/47/43 90/30/43
f 70/33/44 86/22/38 68/34/38
f 68/34/38 85/20/37 66/35/37
f 66/35/37 84/18/36 64/36/36
f 64/36/36 83/16/35 62/37/35
f 60/38/34 83/16/35 82/14/34
f 60/38/34 81/12/33 58/39/33
f 58/39/33 80/10/32 56/40/32
f 56/40/32 79/8/31 54/41/31
f 52/42/30 79/8/31 78/6/30
f 52/42/30 77/4/29 50/43/29
f 50/43/29 76/3/26 48/44/26
f 48/44/26 75/1/28 46/45/45
f 1/45/46 48/44/47 46/45/48
f 2/46/49 49/2/50 4/2/50
f 5/43/51 48/44/47 3/44/52
f 6/5/53 49/2/50 51/5/53
f 5/43/51 52/42/54 50/43/51
f 6/5/53 53/7/55 8/7/55
f 7/42/54 54/41/56 52/42/54
f 8/7/55 55/9/57 10/9/57
f 11/40/58 54/41/56 9/41/56
f 10/9/57 57/11/59 12/11/59
f 13/39/60 56/40/58 11/40/58
f 12/11/59 59/13/61 14/13/61
f 13/39/60 60/38/62 58/39/60
f 14/13/61 61/15/63 16/15/63
f 15/38/62 62/37/64 60/38/62
f 18/17/65 61/15/63 63/17/65
f 19/36/66 62/37/64 17/37/64
f 20/19/67 63/17/65 65/19/67
f 21/35/68 64/36/66 19/36/66
f 20/19/67 67/21/69 22/21/69
f 21/35/68 68/34/70 66/35/68
f 24/23/71 67/21/69 69/23/71
f 25/33/72 68/34/70 23/34/73
f 24/23/71 71/25/74 26/25/74
f 42/24/75 70/33/76 25/33/77
f 26/25/74 72/27/78 27/27/78
f 27/27/78 73/29/79 28/29/79
f 29/47/80 73/29/79 74/47/80
f 29/47/80 47/31/49 2/31/49
f 30/1/81 46/45/82 75/1/83
f 45/30/84 75/32/85 90/30/86
f 45/30/84 89/28/87 44/28/87
f 44/28/87 88/26/88 43/26/89
f 43/26/89 87/24/90 42/24/90
f 30/1/1 2/46/21 4/2/2
f 4/2/2 6/5/4 32/4/4
f 6/5/4 8/7/5 33/6/5
f 8/7/5 10/9/6 34/8/6
f 10/9/6 12/11/7 35/10/7
f 12/11/7 14/13/8 36/12/8
f 14/13/8 16/15/9 37/14/9
f 16/15/9 18/17/10 38/16/10
f 18/17/10 20/19/11 39/18/11
f 20/19/11 22/21/12 40/20/12
f 22/21/12 24/23/14 41/22/13
f 24/23/14 26/25/16 42/24/15
f 26/25/16 27/27/18 43/26/17
f 27/27/18 28/29/19 44/28/19
f 28/29/19 29/47/91 45/30/20
f 45/30/20 29/47/91 2/31/21
f 41/22/13 42/24/15 25/33/22
f 40/20/12 41/22/13 23/34/23
f 39/18/11 40/20/12 21/35/12
f 38/16/10 39/18/11 19/36/11
f 37/14/9 38/16/10 17/37/10
f 36/12/8 37/14/9 15/38/9
f 35/10/7 36/12/8 13/39/8
f 34/8/6 35/10/7 11/40/7
f 33/6/5 34/8/6 9/41/6
f 32/4/4 33/6/5 7/42/5
f 31/3/3 32/4/4 5/43/4
f 1/45/25 30/1/1 31/3/3
f 76/3/26 49/2/26 47/46/27
f 77/4/29 51/5/29 49/2/26
f 78/6/30 53/7/30 51/5/29
f 79/8/31 55/9/31 53/7/30
f 80/10/32 57/11/32 55/9/31
f 81/12/33 59/13/33 57/11/32
f 82/14/34 61/15/34 59/13/33
f 83/16/35 63/17/35 61/15/34
f 84/18/36 65/19/36 63/17/35
f 85/20/37 67/21/37 65/19/36
f 86/22/38 69/23/38 67/21/37
f 87/24/39 71/25/41 69/23/38
f 88/26/40 72/27/40 71/25/41
f 89/28/42 73/29/42 72/27/40
f 90/30/43 74/47/43 73/29/42
f 75/32/28 47/31/27 74/47/43
f 70/33/44 87/24/39 86/22/38
f 68/34/38 86/22/38 85/20/37
f 66/35/37 85/20/37 84/18/36
f 64/36/36 84/18/36 83/16/35
f 60/38/34 62/37/35 83/16/35
f 60/38/34 82/14/34 81/12/33
f 58/39/33 81/12/33 80/10/32
f 56/40/32 80/10/32 79/8/31
f 52/42/30 54/41/31 79/8/31
f 52/42/30 78/6/30 77/4/29
f 50/43/29 77/4/29 76/3/26
f 48/44/26 76/3/26 75/1/28
f 1/45/46 3/44/52 48/44/47
f 2/46/49 47/46/49 49/2/50
f 5/43/51 50/43/51 48/44/47
f 6/5/53 4/2/50 49/2/50
f 5/43/51 7/42/54 52/42/54
f 6/5/53 51/5/53 53/7/55
f 7/42/54 9/41/56 54/41/56
f 8/7/55 53/7/55 55/9/57
f 11/40/58 56/40/58 54/41/56
f 10/9/57 55/9/57 57/11/59
f 13/39/60 58/39/60 56/40/58
f 12/11/59 57/11/59 59/13/61
f 13/39/60 15/38/62 60/38/62
f 14/13/61 59/13/61 61/15/63
f 15/38/62 17/37/64 62/37/64
f 18/17/65 16/15/63 61/15/63
f 19/36/66 64/36/66 62/37/64
f 20/19/67 18/17/65 63/17/65
f 21/35/68 66/35/68 64/36/66
f 20/19/67 65/19/67 67/21/69
f 21/35/68 23/34/73 68/34/70
f 24/23/71 22/21/69 67/21/69
f 25/33/72 70/33/92 68/34/70
f 24/23/71 69/23/71 71/25/74
f 42/24/75 87/24/93 70/33/76
f 26/25/74 71/25/74 72/27/78
f 27/27/78 72/27/78 73/29/79
f 29/47/80 28/29/79 73/29/79
f 29/47/80 74/47/80 47/31/49
f 30/1/81 1/45/94 46/45/82
f 45/30/84 30/32/85 75/32/85
f 45/30/84 90/30/86 89/28/87
f 44/28/87 89/28/87 88/26/88
f 43/26/89 88/26/88 87/24/90
